<?xml version="1.0" encoding="UTF-8"?>
<svg xmlns="http://www.w3.org/2000/svg" viewBox="0 0 841.89 595.28">
  <defs>
    <style>
      .cls-1 {
        fill: #5881c1;
      }

      .cls-2 {
        fill: #fff;
      }

      .cls-3 {
        font-family: FrutigerCn, 'Frutiger Cn';
        font-size: 49px;
      }

      .cls-4 {
        fill: #00a19a;
      }
    </style>
  </defs>
  <g id="Calque_1" data-name="Calque 1">
    <path class="cls-1" d="M25.9,218.65c-16.6,21.6-6.19,44.3,14.68,63.91.03-15.77,1.43-55.16,13.38-86.82-11.43,6.26-21.13,13.89-28.06,22.91"/>
    <path class="cls-1" d="M218.31,244.67c2.67-9.73,4.64-19.66,5.66-29.56,2.38-23.2-24.38-36.52-59.5-39.85,22.81,18.33,42.49,44.46,53.85,69.41"/>
    <path class="cls-1" d="M164.46,175.27c-17.63-14.16-37.12-23.69-56.09-24.44-28.24-1.1-44.78,19.38-54.42,44.93,31.15-17.07,75.08-23.86,110.5-20.49"/>
    <path class="cls-4" d="M156.06,335.37c22.44-6.4,49.98-46.16,62.24-90.7-11.36-24.96-31.04-51.07-53.83-69.41-35.44-3.36-79.37,3.43-110.52,20.49-11.95,31.64-13.35,71.03-13.38,86.8,35.14,33,99.95,57.26,115.49,52.82"/>
    <path class="cls-2" d="M156.06,335.37c22.44-6.4,49.98-46.16,62.24-90.7-11.36-24.96-31.04-51.07-53.83-69.41-35.44-3.36-79.37,3.43-110.52,20.49-11.95,31.64-13.35,71.03-13.38,86.8,35.14,33,99.95,57.26,115.49,52.82"/>
    <path class="cls-1" d="M40.57,282.56c-.01,4.42.09,7.02.09,7.02,0,0,.37,27.46,20.45,43.58,14.52,11.67,54.93,11.58,94.64,2.49l-.06-.2c-16.14,3.99-80.24-20.13-115.12-52.89"/>
    <path class="cls-1" d="M218.31,244.67c-12.27,44.55-39.81,84.29-62.24,90.7-.12.04-.26.05-.37.07l.07.2c20.92-4.79,41.64-12.09,58.31-21.49,19.54-11.03,17.92-39.4,4.24-69.48"/>
    <path d="M141.72,238.32l-4.88-2.69s-.04-.04-.03-.07l4.8-8.7s.04-.03.06-.01l9.22,5.07c2.05,1.13,4.72.65,6.03-1.29,1.48-2.2.72-5.14-1.54-6.38l-9.42-5.2s-.04-.04-.02-.05l4.86-8.84s0-.05-.01-.07l-7.71-4.24s-.05,0-.07.01l-4.87,8.83s-.04.04-.07.03l-16.97-9.35s-.04,0-.06.01l-4.24,7.72s-.01.04.01.05l16.96,9.34s.04.05.03.07l-4.79,8.7s-.04.04-.07.03l-4.1-2.26-3.71-2.04-4.14-2.27s-.05,0-.06,0l-20.09,36.51-5.25,9.53-7.04,12.8s-.01.05.01.07l7.8,4.29s.05,0,.07-.03l7.05-12.8.88-1.61s.04-.02.07,0l16.79,9.24s.02.04.01.07l-7.93,14.41s0,.05.01.06l7.8,4.29s.07.01.07-.01l8.77-15.95,3.53-6.38,20.09-36.51s.01-.04-.01-.05l-5.8-3.19-2.04-1.13ZM121.57,274.85l-16.79-9.25s-.04-.04-.03-.07l3.91-7.09s.04-.02.07-.02l16.79,9.25s.04.04.03.07l-3.91,7.09s-.05.02-.07.02M129.86,259.79l-16.79-9.24s-.04-.04-.01-.06l7.44-13.52s.04-.04.07-.03l16.79,9.24s.04.04,0,.07l-7.43,13.53s-.04.03-.07.01"/>
    <path d="M158.09,230.86h0c-1.2,2.15-.4,4.86,1.75,6.05,2.15,1.18,4.86.39,6.05-1.75,1.18-2.15.4-4.86-1.75-6.05-2.15-1.18-4.86-.4-6.05,1.75"/>
    <rect class="cls-1" x="254.84" y="338.02" width="548.09" height="5.25"/>
    <path d="M265.05,240.8h-9.02v-64.42h21.58c10.51,0,18.22,7.92,18.22,18.83,0,5.8-1.48,9.95-4.83,13.72-4.19,4.73-8.75,6.47-17.03,6.47h-8.93v25.4ZM274.36,206.8c4.37,0,6.7-.77,8.93-2.8,2.14-2.13,3.53-5.41,3.53-8.41s-1.31-5.98-3.26-7.92c-2.14-2.12-4.28-2.7-9.31-2.7h-9.2v21.83h9.3Z"/>
    <path d="M362.06,208.73c0,18.35-14.5,33.32-32.18,33.32s-32.29-14.97-32.29-33.32,14.24-33.61,32.29-33.61,32.18,14.78,32.18,33.61M306.63,208.84c0,6.28,2.7,13.13,6.98,17.67,4.18,4.64,9.76,6.96,16.28,6.96s11.99-2.31,16.18-6.96c4.29-4.53,6.98-11.39,6.98-17.67s-2.14-12.27-5.96-17c-4.65-5.6-10.13-8.11-17.57-8.11-12.75,0-22.89,11.11-22.89,25.12M325.7,157.45h8.37l11.72,12.36h-9.57l-6.51-6.67-6.15,6.67h-9.58l11.72-12.36Z"/>
    <polygon points="368.11 240.8 368.11 176.38 377.12 176.38 377.12 232.21 398.71 232.21 398.71 240.8 368.11 240.8"/>
    <polygon points="403.08 240.8 403.08 176.38 436.56 176.38 436.56 184.97 412.09 184.97 412.09 204.01 436.56 204.01 436.56 212.6 412.09 212.6 412.09 232.21 436.56 232.21 436.56 240.8 403.08 240.8"/>
    <path d="M520.09,224.96c-5.86,10.82-16.28,17.09-28.18,17.09-17.3,0-31.81-15.27-31.81-33.32s14.05-33.61,31.81-33.61c12.38,0,22.41,6.18,28.66,17.67h-10.99c-4.92-6.16-10.51-9.08-17.57-9.08-12.75,0-22.88,11.11-22.88,25.01s10.61,24.73,22.88,24.73c6.61,0,12.37-2.9,16.93-8.5h11.16Z"/>
    <path d="M566.59,221.1c0,6.18-1.68,10.43-5.67,14.49-4.19,4.24-9.49,6.47-15.45,6.47-11.43,0-20.46-9.28-20.46-20.96v-44.71h9.03v43.35c0,4.74.92,7.54,3.34,10.15,2.23,2.42,5.01,3.57,8.56,3.57,3.34,0,6.32-1.26,8.56-3.67,2.42-2.61,3.07-4.83,3.07-10.05v-43.35h9.02v44.71Z"/>
    <polygon points="575.05 240.8 575.05 176.38 584.07 176.38 584.07 232.21 605.65 232.21 605.65 240.8 575.05 240.8"/>
    <polygon points="612.63 240.8 612.63 184.97 600.63 184.97 600.63 176.38 633.47 176.38 633.47 184.97 621.65 184.97 621.65 240.8 612.63 240.8"/>
    <path d="M678.3,221.1c0,6.18-1.68,10.43-5.67,14.49-4.19,4.24-9.49,6.47-15.45,6.47-11.43,0-20.46-9.28-20.46-20.96v-44.71h9.03v43.35c0,4.74.92,7.54,3.34,10.15,2.23,2.42,5.02,3.57,8.56,3.57,3.34,0,6.32-1.26,8.56-3.67,2.42-2.61,3.07-4.83,3.07-10.05v-43.35h9.02v44.71Z"/>
    <path d="M716.43,240.8l-20.65-29.94v29.94h-9.02v-64.42h19.17c7.64,0,12.75,1.64,16.55,5.31,3.64,3.67,5.67,9.18,5.67,15.65s-2.97,12.75-7.81,16.03c-2.78,1.83-5.11,2.7-9.95,3.39l17.39,24.04h-11.35ZM702.02,209.6c5.48,0,8.56-.67,11.63-2.51,3.53-2.12,5.48-5.69,5.48-10.14,0-7.24-5.48-11.97-13.77-11.97h-9.58v24.63h6.24Z"/>
    <polygon points="734.47 240.8 734.47 176.38 767.96 176.38 767.96 184.97 743.49 184.97 743.49 204.01 767.96 204.01 767.96 212.6 743.49 212.6 743.49 232.21 767.96 232.21 767.96 240.8 734.47 240.8"/>
    <polygon points="774.74 240.8 774.74 176.38 783.76 176.38 783.76 232.21 805.36 232.21 805.36 240.8 774.74 240.8"/>
    <path d="M319.14,266.67c-.37-5.6-3.72-9.37-8.37-9.37s-8.47,4.06-8.47,8.89c0,2.71,1.22,5.22,3.35,6.67,1.3.97,2.8,1.54,6.89,2.69,6.88,2.04,9.4,3.39,12.09,6.59,3.16,3.47,4.75,7.91,4.75,12.93,0,11.49-8.29,20.57-18.88,20.57-6.52,0-11.92-2.71-15.72-7.72-2.8-3.77-3.82-7.05-3.91-12.56h8.91c.39,3.48.74,5.02,1.87,6.85,1.68,2.9,5.11,4.84,8.65,4.84,5.67,0,10.04-4.64,10.04-10.73,0-3.67-1.68-6.56-4.92-8.31-1.39-.77-1.68-.87-4.28-1.72-1.02-.3-.47-.1-1.68-.49l-.84-.39-.83-.3c-6.79-2.31-8.01-2.98-10.32-5.59-2.69-3-4.19-7.24-4.19-11.78,0-11.02,7.54-19.03,17.95-19.03,6.15,0,11.17,2.9,14.52,8.5,1.66,2.8,2.32,5.41,2.51,9.46h-9.12Z"/>
    <path d="M377.27,314.38l-6.88-19.03h-22.33l-6.88,19.03h-9.59l23.53-64.42h8.2l23.52,64.42h-9.58ZM359.32,262.13l-7.99,24.63h15.9l-7.91-24.63Z"/>
    <rect x="393.08" y="249.96" width="9.02" height="64.42"/>
    <polygon points="454.56 314.38 423.59 264.54 423.59 314.38 414.56 314.38 414.56 249.96 424.42 249.96 454.83 299.02 454.83 249.96 463.86 249.96 463.86 314.38 454.56 314.38"/>
    <polygon points="483.02 314.38 483.02 258.56 471.01 258.56 471.01 249.96 503.86 249.96 503.86 258.56 492.03 258.56 492.03 314.38 483.02 314.38"/>
    <rect x="505.71" y="285.11" width="23.35" height="8.98"/>
    <polygon points="553.34 314.38 528.32 249.96 538 249.96 556.05 298.24 574.08 249.96 583.67 249.96 558.83 314.38 553.34 314.38"/>
    <path d="M624.48,314.38l-6.88-19.03h-22.33l-6.88,19.03h-9.59l23.53-64.42h8.2l23.52,64.42h-9.58ZM606.54,262.13l-7.99,24.63h15.9l-7.91-24.63Z"/>
    <path d="M679.73,314.38l-6.88-19.03h-22.33l-6.88,19.03h-9.59l23.53-64.42h8.2l23.52,64.42h-9.58ZM661.78,262.13l-7.99,24.63h15.9l-7.91-24.63Z"/>
    <path d="M718.61,266.67c-.37-5.6-3.72-9.37-8.37-9.37s-8.47,4.06-8.47,8.89c0,2.71,1.22,5.22,3.35,6.67,1.3.97,2.8,1.54,6.89,2.69,6.88,2.04,9.4,3.39,12.09,6.59,3.16,3.47,4.75,7.91,4.75,12.93,0,11.49-8.29,20.57-18.88,20.57-6.52,0-11.92-2.71-15.72-7.72-2.8-3.77-3.82-7.05-3.91-12.56h8.93c.37,3.48.73,5.02,1.85,6.85,1.68,2.9,5.11,4.84,8.65,4.84,5.67,0,10.04-4.64,10.04-10.73,0-3.67-1.66-6.56-4.92-8.31-1.39-.77-1.68-.87-4.28-1.72-1.02-.3-.47-.1-1.68-.49l-.84-.39-.83-.3c-6.79-2.31-7.99-2.98-10.32-5.59-2.69-3-4.19-7.24-4.19-11.78,0-11.02,7.54-19.03,17.95-19.03,6.14,0,11.16,2.9,14.51,8.5,1.68,2.8,2.32,5.41,2.51,9.46h-9.12Z"/>
    <polygon points="744.94 314.38 744.94 258.56 732.93 258.56 732.93 249.96 765.77 249.96 765.77 258.56 753.95 258.56 753.95 314.38 744.94 314.38"/>
  </g>
  <g id="Calque_2" data-name="Calque 2">
    <text class="cls-3" transform="translate(313.98 403.72) scale(1.06 .93)"><tspan x="0" y="0">RONVILLE - VERLAINE</tspan></text>
  </g>
</svg>