<?xml version="1.0" encoding="UTF-8"?>
<svg id="Calque_1" data-name="Calque 1" xmlns="http://www.w3.org/2000/svg" viewBox="0 0 1410 1038">
  <defs>
    <style>
      .cls-1 {
        fill: #fff;
      }

      .cls-2 {
        fill: #ff3000;
      }
    </style>
  </defs>
  <path class="cls-2" d="M344.5,65l77,184.98,78.21-185,330.34.48,127.46,325.54h77l1.5,1.5v254.5h-117v323h-197v-114.5l-1.5-1.5h-66.5l-34.99-92c-1.14,33.66-8.29,65.91-25.59,94.91-49.52,83.05-147.77,109.86-239.62,92.78-75.69-14.07-128.5-61.91-181.81-113.19-2.37-2.27-13.72-12.88-14.5-14.54-1.6-3.43,3.34-8.77,5.54-11.45,3.7-4.49,8.63-8.92,12.49-13.51,29.66-35.34,59.17-70.8,89.41-105.65-8.16-10.42-18.26-18.81-26.35-29.45-42.38-55.76-45.49-138.84-11.76-199.59,7.34-13.21,17.55-25.22,27.2-36.8,2.37-2.85,8.84-7.44,8.87-11-11.92-33.64-23.86-67.29-36.12-100.8-28.89-78.98-60.71-157.63-87.8-237.2-1.27-3.73-2.62-7.55-2.98-11.52h208.5ZM286.5,149c-7.42-1.25-21.7,0-30,0-.65,0-1.99,2.01-1.11,3.04l109.42,299.68c-.05,3.09-9.8,4.54-12.79,5.8-50.74,21.31-73.61,69.86-61.53,123.49,13.13,58.3,88.71,79.69,137.09,98.95l-33.19,88.97,1.1,2.07h29l31.06-77.99c25.38,13.25,46.64,32.43,49.31,62.62,6.05,68.47-61.8,93.73-119.24,85.24-37.96-5.61-66.78-26.78-95.19-50.83l-1.43-.03c-2.37,7.74-14.7,15.67-17.53,22.04-.6,1.34-.65,1.57-.02,2.94,1.07,2.33,21.59,18.26,25.22,20.84,50.83,36.08,124.58,48.61,181.67,20.04,63.36-31.71,77.68-121.62,23.66-169.37-11.12-9.83-24.43-16.08-35.97-25.1l4.21-4.63,198.78-.3,42.96,114.54h34l-104.3-268.2-1.3-9.82,15.5-42.36,201.49-.68,8.61,24.06h-180v26.5c0,.25-.81.59-.78,1l1.28,1.5h117l1.55,3.45c-.1,125.73-1.66,251.31-1.1,377.1.2,3.99,2.16,4.19,5.49,4.51s26.06.57,26.6-1.72l1.46-383.33h39l25,61h31.5l-22-61h45v-29l-57.48-.95c-28.31-75.24-58.27-149.84-87.27-224.8-11.1-28.71-21.41-57.78-32.51-86.49-1.72-4.45-3.3-12.14-8.2-12.8-3.34-.45-24.39-.5-26.85.24-.98.29-1.64,1-2.16,1.84-36.1,95.53-75.25,190.13-111.28,285.72-2.1,5.56-4.02,11.42-5.26,17.24l-5.47-9.01-33.98-89.02c-2.1-2.15-25.9-.76-30.54-.48l-47.08,119.45-32.79-16.08,111.88-309.87h-30.5l-110.99,301.04c-9.9-1.42-20.05-2.39-30.02-3.03-7.69-.49-19.7,3.1-22.65-5.34-30.78-90.05-64.14-179.18-96.29-268.72-1.67-4.66-5.18-23.14-10.04-23.96Z"/>
  <path class="cls-2" d="M953,792.5c1.12-3.61,13.01.09,16.01-.51,1,11.21,2.11,23.22,4.3,34.23.37,1.86.13,4.51,2.69,3.78l5-38h16l.99,65.99c-2.84-.62-10.59,3.1-11.85-.63.1-11.44,2.3-25.64.86-36.88-.18-1.37-.75-3.14-2-1.49l-5,40.01h-10.99s-6.51-48.02-6.51-48.02l-.55,47.96-8.95.05v-66.5Z"/>
  <path class="cls-2" d="M1062,791.5c0-.39-1.86-1.45.62-2.38l10.39-.12v70.01h-25.51c-2.25,0-3.7-4.08-4.05-5.95-1.92-10.22-2.27-28.18-.23-38.33,1.84-9.14,11.4-8.05,18.77-8.73-.03-4.82.04-9.67,0-14.5ZM1053,817v33l7.81-1.19c3.04-10.85-.63-21.83.19-32.81l-8,1Z"/>
  <path class="cls-2" d="M1263,807v68.5l-1.66,1.34c-1.26.28-2.56.22-3.84.22-2.05,0-4.23.33-5.5-1.56v-16c-5.06-3.47-11.5,4.08-16.47-2.52-2.98-3.96-3.04-15.36-3.15-20.64s.15-21.46,2.07-25.39c.44-.9,2.43-3.94,3.06-3.94h25.5ZM1243,816v34c4.04-.18,8.48.32,9.06-4.44.48-3.97.35-25.21-1.05-27.81-1.18-2.19-5.89-1.71-8-1.74Z"/>
  <path d="M1045.01,733l7.1-44.89,10.9-.11-10.89,67.43-13.01.47-11.11-67.9c3.52.49,9.52-1.66,11.27,2.24l5.74,42.76Z"/>
  <path d="M979.97,707.99l-9.88-.09c-1.09-5.01-.58-14-7.6-8.91-3.98,15.63,13.67,16.47,17.66,30.36,3.72,12.93.68,28.11-15.65,27.73-12.31-.29-14.86-9.58-15.09-20.11l10.45-1.83,2.13,11.11c6.78,4.92,8.59-4.38,8.04-9.77-1.15-11.27-17.75-13.2-19.07-27.95-2.8-31.18,34.24-27.03,29.01-.55Z"/>
  <path class="cls-2" d="M1166,859h-11.01s-1.01-69.43-1.01-69.43l12.02-.57c.87.89-3.44,15.67.5,18h16.5c-.13,2.06,2,6.08,2,7.5v44.5h-10v-41.5c0-2.46-7.48-1.28-9-.5v42Z"/>
  <path d="M1129.96,754.96l-22.35,1.76c-10.84-4.61-11.65-24.33-1.68-30.29,3.26-1.95,11.29-2.2,11.93-4.07l-.87-11.36c-3.2-.22-3.75,4.22-5.57,5.92-2.84,2.68-7.43,3-10.47.41-3.06-16.07,23.2-20.64,27.38-7.17,3.59,11.58-1.94,32.22,1.63,44.8ZM1116.51,732.04c-5.83-.44-9.75,12-3.81,14.83,7.73,1.88,5.86-14.67,3.81-14.83Z"/>
  <path d="M1092,756c-3.5.92-7.51-1.05-10.5-1-3.87.07-8.87,2.61-12.73.8-10.27-4.8-8.13-27.95,1.97-30.56,2.99-.77,9.68.82,10.31-3.78.2-1.49-1.31-10.92-2.56-11.46l-4.7,7.79-10.8.2c.58-12.17,9.5-18.81,21.23-14.72,2.72.95,7.77,5.71,7.77,8.23v44.5ZM1079.81,745.8c.64-2.32,2.71-13.19-.33-13.8-5.52-1.12-9.36,11.54-4.85,14.93l5.18-1.12Z"/>
  <path class="cls-2" d="M1281,807v35.5c0,.53,1.57,6.76,1.97,7.06l7.03-.56.99-42.01h10.01v52.01h-25.5c-6.3-6.08-4.02-13.76-4.51-21.49-.65-10.1-1.57-20.28-.99-30.52h11.01Z"/>
  <path class="cls-2" d="M1125,859h-24.5c-.47,0-2.23-1.04-2.49-1.75-2-5.45-2.8-22.74,2.23-26.61,3.83-2.94,9.18-2.45,13.32-4.58,1.2-1.71.76-10.92-1.05-13.05-3.24,7.15-7.16,7.9-14.5,8.99-3.78-13.94,13.35-20.83,22.97-13.48.96.74,4.02,5.34,4.02,5.98v44.5ZM1114,835c-8.87.48-9.51,7.2-7.07,14.56l7.07.44v-15Z"/>
  <path class="cls-2" d="M1035,836h-18.5c-2.88,0-.38,12.11.08,14.11,7.37,2.71,8.05-.33,7.43-7.11l11-1.01c.53,4.14-1.14,12.32-4.47,15.04-3.94,3.22-18.51,3.07-22-1.06-4.49-5.31-4.42-29.26-3.44-36.38,1.41-10.21,10.21-15.67,20.2-13.37,3.98.91,9.71,8.34,9.71,12.29v17.5ZM1016.26,817.25c-1.46,1.55-2.09,8.07-.32,9.31,1.3.91,8.63.88,9.64-.52l-1.51-10.63c-1.61-1.13-6.64.59-7.81,1.83Z"/>
  <path class="cls-2" d="M1225,835l-19.56,1.94c-1.21,6.47-1.28,17.81,8.13,13.13l.43-8.07c3.02.3,6.63-.42,9.54,0,1.49.21,1.6-.59,1.48,1.49-.52,8.74-3.31,14.59-12.52,15.49-8.55.83-15.66-1.3-17.25-10.72-1.34-7.97-1.22-30.67,3.33-37.19,6.13-8.79,21.48-7.26,24.95,2.91.24.7,1.48,6.19,1.48,6.52v14.5ZM1212.87,815.13c-2.11-.55-5.33-.27-6.38,1.86l-.5,11.01,8.89-1.11-2.01-11.76Z"/>
  <path class="cls-2" d="M1318.5,836c-3.17,1.04-1.86,12.1-.57,14.56l5.93.3,1.59-6.91,10.55-.96c1.48,3.81-3.17,14.74-6.69,15.82-2.49.76-17.46.56-19.08-1.05-4.37-4.37-4.19-37.87-1.97-44,3.76-10.37,22.44-11.06,26.94,1.53,1.98,5.53,3.22,15.73.29,20.71h-17ZM1319.09,814.1c-.64.44-5.04,13.49-.61,13.93,1.61.16,9.05-1.87,9.28-3.5-.68-2.98-4.16-13.59-8.67-10.43Z"/>
  <path d="M1136.02,739.02c3.87.25,8.3-2.7,10.8,1.67.99,1.73,1.6,9.19,6.09,6.21.33-.22,1.14-3.63,1.16-4.44.17-7.85-14.5-11.53-16.62-18.4-4.5-14.61,6.85-27.7,20.92-19.92,14.32,7.91,2.15,29.76-7.86,6.88-8.18,7.52,2.67,11.03,7.51,15.47,4.25,3.9,7.97,8.78,7.88,14.9-.33,22.47-33.86,19.95-29.88-2.38Z"/>
  <path d="M1182.79,691.21c1.27,1.3-.12,9.42,1.66,11.84,1.48,2.01,4.98-.86,5.62,4.43.94,7.78-4.91,4.21-5.95,7.15l-.17,31.71c.42,1.87,7.34,1.23,7.12,4.16-.32,6.81-10.97,8.37-15.62,4.54-6.84-5.63-1.76-29.87-3.45-38.55-.53-2.72-5.37-3.16-4.98-8.93.3-4.38,4.74-5.25,4.99-6.26.59-2.37-.91-7.52.41-9.37l10.36-.73Z"/>
  <path d="M1000.89,691.11c1.52,3.02.36,8.44,1.58,10.91,1.44,2.92,15.76,5.73-.52,12.63v31.69s7.11,3.25,7.11,3.25c-.35,10.14-15.74,9.42-17.57,1.44-.07-6.42-1.24-13.26-1.53-19.49-.17-3.48,1.06-15.5-.25-17.24-.55-.73-2.25-1.06-3.19-2.3-4.5-5.95,1.47-6.86,3.21-10.77,1.28-2.89.88-6.3,1.71-9.29l9.45-.83Z"/>
  <path class="cls-2" d="M1137,859c-3.2-2.03-.97-34.07-2.02-39.48-.53-2.74-5.81-6-5.06-10.91l4.92-3.28,1.74-11.4,8.37.11,1.48,12.02c1.02,1.41,4.63.26,5.44,2.55,2.92,8.24-5.3,6.57-5.93,11.82-.54,4.47-.73,24.13.05,28.06.59,2.98,2.33,2.42,4.97,2.53l.04,7.96h-14Z"/>
  <path class="cls-2" d="M1092,807l.05,50.42c-4,1.07-11.39,4.29-12.11-1.87-1-8.58-.27-23.01,0-32.09.16-5.22,2.69-11.16.04-16.45h12Z"/>
  <path d="M1027,724v10h-17.5c-2.36-2.15-2.36-7.85,0-10h17.5Z"/>
  <path class="cls-2" d="M1014,800.99c4.52-6.28,10.86-18.81,19.98-11.5-4.65,7.02-10.78,13.13-19.98,11.5Z"/>
  <path class="cls-2" d="M1214,799.99c-1.87-.36-3.93.93-5.55.87-3.5-.11-18.23-12.71-6.69-13.67,5.22-.43,13.29,11.77,12.24,12.8Z"/>
  <polygon class="cls-2" points="1091.01 788.99 1091.01 800.01 1081 800 1080 789.01 1091.01 788.99"/>
  <path class="cls-1" d="M286.5,149c4.86.82,8.37,19.3,10.04,23.96,32.16,89.54,65.52,178.67,96.29,268.72,2.96,8.43,14.96,4.84,22.65,5.34,9.98.64,20.12,1.61,30.02,3.03l110.99-301.04h30.5l-111.88,309.87,32.79,16.08,47.08-119.45c4.64-.28,28.44-1.67,30.54.48l33.98,89.02,5.47,9.01c1.25-5.82,3.17-11.68,5.26-17.24,36.03-95.59,75.17-190.19,111.28-285.72.52-.84,1.18-1.55,2.16-1.84,2.46-.74,23.51-.69,26.85-.24,4.9.66,6.48,8.35,8.2,12.8,11.1,28.71,21.4,57.78,32.51,86.49,28.99,74.96,58.95,149.56,87.27,224.8l57.48.95v29h-45l22,61h-31.5l-25-61h-39l-1.46,383.33c-.53,2.29-23.11,2.06-26.6,1.72s-5.29-.52-5.49-4.51c-.56-125.79.99-251.36,1.1-377.1l-1.55-3.45h-117l-1.28-1.5c-.03-.41.78-.75.78-1v-26.5h180l-8.61-24.06-201.49.68-15.5,42.36,1.3,9.82,104.3,268.2h-34l-42.96-114.54-198.78.3-4.21,4.63c11.53,9.01,24.85,15.27,35.97,25.1,54.02,47.75,39.71,137.67-23.66,169.37-57.1,28.57-130.84,16.04-181.67-20.04-3.63-2.58-24.15-18.51-25.22-20.84-.63-1.36-.58-1.6.02-2.94,2.84-6.37,15.17-14.29,17.53-22.04l1.43.03c28.41,24.05,57.23,45.21,95.19,50.83,57.44,8.49,125.28-16.76,119.24-85.24-2.67-30.19-23.93-49.37-49.31-62.62l-31.06,77.99h-29l-1.1-2.07,33.19-88.97c-48.38-19.26-123.96-40.65-137.09-98.95-12.08-53.63,10.79-102.18,61.53-123.49,3-1.26,12.74-2.7,12.79-5.8l-109.42-299.68c-.89-1.03.46-3.04,1.11-3.04,8.3,0,22.58-1.25,30,0ZM845,421l-87.5-233.01-89.5,233.01h177ZM582,564c-.22-1.41.13-2.66.49-4.01,4.55-17.15,16.19-36.38,21.52-53.48,2.98-9.56,2.32-12.13-.55-21.48-4.5-14.68-12.07-32.58-17.72-47.28-4.73-12.31-9.86-27.78-15.73-39.27-.48-.94-.53-2.38-2.01-2.48l-88.01,232h177l-32.01-89.99c-1.4.89-3.45,3.86-4.19,5.29-3.21,6.22-4.65,14.27-7.8,20.7h-31ZM422.99,519l13.97-39.51c-.23-2.58-27.04-4.25-30.96-4.48,4.09,12.01,7.45,25.61,12.23,37.26.35.86,3.02,8.46,4.76,6.74ZM375.93,480.03c-26.73,5.85-54.18,30.21-56.92,58.48-2.19,22.52.26,41.25,15.48,58.5,19.36,21.95,68.49,41.74,96.55,50.45,1.49.46,8.36,2.47,9.01,2.09l54.82-143.84c-2.45-3.11-30.5-19.97-31.86-18.71l-27.48,76.03-27.87.81-31.73-83.81Z"/>
  <path class="cls-1" d="M1053,817l8-1c-.81,10.98,2.85,21.96-.19,32.81l-7.81,1.19v-33Z"/>
  <path class="cls-1" d="M1243,816c2.12.04,6.83-.44,8,1.74,1.4,2.61,1.54,23.84,1.05,27.81-.58,4.76-5.01,4.26-9.06,4.44v-34Z"/>
  <path class="cls-1" d="M1116.51,732.04c2.05.15,3.92,16.71-3.81,14.83-5.94-2.83-2.02-15.26,3.81-14.83Z"/>
  <path class="cls-1" d="M1079.81,745.8l-5.18,1.12c-4.51-3.39-.67-16.04,4.85-14.93,3.04.62.97,11.48.33,13.8Z"/>
  <path class="cls-1" d="M1114,835v15l-7.07-.44c-2.45-7.37-1.81-14.09,7.07-14.56Z"/>
  <path class="cls-1" d="M1016.26,817.25c1.16-1.24,6.19-2.96,7.81-1.83l1.51,10.63c-1.01,1.39-8.34,1.43-9.64.52-1.76-1.23-1.13-7.76.32-9.31Z"/>
  <path class="cls-1" d="M1212.87,815.13l2.01,11.76-8.89,1.11.5-11.01c1.05-2.13,4.27-2.41,6.38-1.86Z"/>
  <path class="cls-1" d="M1319.09,814.1c4.52-3.15,7.99,7.45,8.67,10.43-.23,1.63-7.67,3.65-9.28,3.5-4.43-.44-.03-13.49.61-13.93Z"/>
  <polygon class="cls-2" points="845 421 668 421 757.5 187.99 845 421"/>
  <path class="cls-2" d="M582,564h31c3.15-6.43,4.59-14.48,7.8-20.7.74-1.43,2.79-4.4,4.19-5.29l32.01,89.99h-177l88.01-232c1.48.11,1.53,1.54,2.01,2.48,5.87,11.5,11,26.96,15.73,39.27,5.64,14.7,13.21,32.6,17.72,47.28,2.87,9.35,3.53,11.92.55,21.48-5.33,17.1-16.98,36.33-21.52,53.48-.36,1.35-.71,2.6-.49,4.01Z"/>
  <path class="cls-2" d="M375.93,480.03l31.73,83.81,27.87-.81,27.48-76.03c1.36-1.26,29.41,15.59,31.86,18.71l-54.82,143.84c-.64.38-7.52-1.63-9.01-2.09-28.06-8.71-77.19-28.5-96.55-50.45-15.22-17.26-17.67-35.98-15.48-58.5,2.75-28.27,30.19-52.63,56.92-58.48Z"/>
  <path class="cls-2" d="M422.99,519c-1.73,1.72-4.4-5.87-4.76-6.74-4.78-11.65-8.13-25.24-12.23-37.26,3.92.23,30.73,1.9,30.96,4.48l-13.97,39.51Z"/>
</svg>