<?xml version="1.0" encoding="UTF-8"?>
<svg id="Calque_1" data-name="Calque 1" xmlns="http://www.w3.org/2000/svg" viewBox="0 0 1112.75 1429.92">
  <defs>
    <style>
      .cls-1 {
        fill: #005a87;
      }

      .cls-2 {
        fill: #4f6381;
      }

      .cls-3 {
        fill: #fff;
      }

      .cls-4 {
        fill: #dedfe8;
      }

      .cls-5 {
        fill: #e0e5ee;
      }
    </style>
  </defs>
  <rect class="cls-3" width="1112.75" height="1429.92"/>
  <g>
    <path class="cls-1" d="M126.17,940.34c-.17-38.33.17-518.52,0-696.87,68.78-20.72,243.85-65.84,402.84-67.58,205.86-2.25,438.92-63.93,492.2-81.85.17,233.03.34,464.52.51,697.38-33.28,17.24-298.19,80.83-486.81,80.83-181.66.17-408.78,68.98-408.78,68.1h.03Z"/>
    <path class="cls-3" d="M493.66,265.76c50.86,0,96.32,26.28,125.24,66.87,20.38,28.74-9.42,64.61-9.42,103.46,0,.51,41.98,1.23,41.98,1.74h-315.94v-1.74c0-93.87,71.07-170.33,158.14-170.33Z"/>
    <path class="cls-3" d="M616.64,700.32H255.92v34.85c-61.47,7.13-109.19,109.02-109.19,164.59,71.92-17.07,149.95-44.58,252.01-56.25,67.75-7.85,149.44-9.39,201.69-11.67l16.21-131.52h0Z"/>
    <path class="cls-3" d="M650.77,462.06h-323.07l-19.49,24.2,33.62-.34c-3.31,52.6-26.66,132.71-81.68,155.89l-2.8,19.15h-20.04l-9.93,15.67h426.36l-2.97-214.56h0Z"/>
    <path class="cls-1" d="M175.09,879.04c10.96-49.63,37.96-100.15,103.97-121.04.34-10.62.34-32.39.17-41.81l21.78-.17-.17,35.02c-.17,17.58.68,23.18-17.24,30.31-49.63,19.87-67.58,37.62-85.5,91.61l-23.01,6.11v-.03Z"/>
    <path class="cls-1" d="M316.54,659.94h-29.42c53.83-46.66,75.61-113.56,76.8-173.3l22.12-.17c.34,58.33-24.2,140.39-69.5,173.47Z"/>
    <path class="cls-1" d="M484.61,496.54c41.1,0,74.38,33.45,74.38,74.38s-33.28,74.55-74.38,74.55-74.38-33.45-74.38-74.55,33.45-74.38,74.38-74.38h0Z"/>
    <path class="cls-3" d="M484.61,521.29c27.34,0,49.8,22.29,49.8,49.63s-22.46,49.8-49.8,49.8-49.63-22.29-49.63-49.8,22.29-49.63,49.63-49.63h0Z"/>
    <path class="cls-1" d="M493.14,312.46c9.76-.34,19.32.85,25.43,2.8l7.85-20.55c-5.73-1.91-17.07-4.88-32.73-4.88-68.98,0-125.75,53.66-131.31,121.58h23.69c5.56-57.14,46.66-97.35,107.11-98.92l-.03-.03Z"/>
    <path class="cls-1" d="M789.05,768.79c-2.97,6.79-6.79,12.9-10.27,19.15-2.8,4.71-6.96,9.05-7.48,14.64-.72,9.05-8.7,12.19-9.25,1.06-.68-13.24,3.99-24.92,3.99-37.96-9.22,5.56-17.41,40.24-15.84,48.78.51,2.59-3.48,7.13-5.91,4.54-14.47-14.1-7.65-40.24-1.91-60.45-9.05,7.85-11.33,9.76-16.21,21.06-1.57,3.65-6.28-1.74-7.48-5.73-2.08-6.28-2.08-16.38-1.23-20.04,5.73-23.35,8.87-40.24,5.56-59.05-7.65,18.12-20.72,31.54-24.92,36.59,3.31,8.19,5.56,14.27,8.53,22.46,2.08,6.28,3.65,10.1,3.99,20.04.17,7.48-5.77,4.16-8.36,1.74-6.62-6.45-10.79-8.7-20.04-12.53-7.3,14.27-11.67,30.65-15.33,46.15-3.31,5.91-6.96,4.71-10.27-1.74-4.34-8.7-4.16-22.84-5.39-29.8-1.06-5.56-.17-17.75-.51-27.68-4.88-1.57-5.73-1.74-14.44-4.2-6.79,13.76-14.47,64.27-20.04,74.04-5.39,9.59-10.27,18.64-19.15,21.44-9.76,2.97-.85-9.05-1.74-25.77-.51-13.24-5.22-35.02-7.48-57.31-1.23-12.53-1.74-24.54-2.08-35.87-7.48-15.67-3.14-37.62-3.31-66.36-.17-25.77,1.91-40.41-.17-74.38-3.48-5.56-8.87-15.5-12.7-28.23-3.65-12.7-7.13-33.45-7.13-52.6,0-18.12,5.56-37.62,10.27-54.51-12.19,13.76-43.18,35.7-70.35,35.53-19.7-.34-36.56-5.05-10.79-18.3,12.36-9.76,24.03-23.01,34.3-37.62,12.73-18.12,23.52-38.5,30.82-56.25-5.73,4.71-16.9,18.47-34.47,25.26-8.02,3.14-21.27,8.02-29.08,4.71-12.53-5.73-6.11-8.02.89-14.81,11.16-10.79,18.81-23.86,25.94-37.96,7.85-15.84,14.1-32.73,20.72-49.46,5.56-13.76,13.24-43.72,25.77-35.19,2.8-1.23,4.71-2.08,6.11-4.88-9.59-8.53-9.93-19.69-4.71-28.91,2.63-4.71,5.22-9.22,11.5-13.24-.17-9.76-1.06-14.98-1.06-21.95.17-5.56,9.93-5.05,10.96-.51.51,2.63,3.82,4.2,6.11,5.05,8.36,3.14,20.89,3.48,33.96,3.65,16.9.17,35.53-1.4,44.58,5.22,5.56,4.16,1.57,5.39,9.76,14.81,1.74,2.08,4.2,3.48,14.64,2.97,7.48-.34,14.64-1.4,20.38,4.2,3.31,3.31,5.73,7.85,11.67,10.96,4.54,2.25,11.67,2.59,16.01,5.05,5.56,3.14,8.87,9.76.85,20.72-1.74,2.59-5.05,3.48-7.65,5.39,1.23,14.81-.72,16.38-11.5,22.63-3.65,9.76-9.76,18.12-18.12,24.2-5.56-4.16-2.42-8.53-2.42-14.98-.17-4.88-2.63-7.51-4.03-9.59-10.1,1.06-21.27,4.71-29.76,11.5-8.36,6.79-14.27,16.55-13.93,29.42,14.64-9.93,37.1-12.7,60.96-14.1,20.72-1.06,39.73-7.3,60.79-15.5,3.65-1.23,13.04-6.62,20.21-10.1,4.88-2.25,7.85,2.8,4.2,9.42-10.27,17.95-25.26,33.62-47.21,43.18-17.41,7.3-29.76,8.7-52.09,8.19,2.25,5.05,2.42,10.96.89,17.24,4.68,2.63-.34,13.07-3.31,16.9-5.56,6.96-10.1,11.16-15.33,19.87-3.48,5.91-13.41,2.8-11.84-7.13.34-2.97-11.16-4.88-16.73-5.56-8.7-.85-15.84-2.08-23.18-8.36,1.57,19.87,7.85,38.13,25.43,46.32,17.58,8.02,34.13,3.82,49.97-3.14,13.93-6.11,28.4-15.84,44.07-29.25,6.79-5.73,15.16-16.01,20.72-23.01,6.62-8.36,18.3-9.39,12.02,2.46-7.13,14.27-9.59,33.62-14.81,49.8-3.65,11.33-18.81,45.47-26.11,52.09,23.86-12.53,38.33-25.6,58.54-46.49,5.22-5.56,10.27-11.33,16.73-15.67,6.79-4.54,12.56-7.65,16.9-10.79,7.48-5.22,14.47-13.93,12.02-24.2-2.63-10.96-6.45-20.38-6.11-28.91.17-7.3.51-17.24,9.39-25.43,2.25-22.8,7.3-34.65,29.42-37.27,8.36-.85,16.9,8.36,10.27,9.93-8.36,2.25-12.36,16.01-12.9,21.78-.17,1.91,3.86.51,5.05,3.14,2.63,5.39-.34,12.9-1.02,19.32-.72,4.88,0,9.05,5.56,10.79,5.73-11.84,4.88-19.87,8.7-25.77,2.25-3.48,6.11-7.85,14.27-8.19,16.21-24.58,39.01-24.75,52.43-11.33,6.79,6.79,4.37,12.19-2.08,10.44-12.02-3.48-20.55,5.73-26.11,12.7,6.25,5.91,8.36,9.59-4.71,22.46-3.31,3.31-29.42,22.63-23.69,23.52,4.37.68,14.1-14.27,25.09-18.12,4.88-1.57,10.1-.85,15.16,4.71,12.56-1.57,26.49-.17,31.16,14.81,1.91,6.45-.68,31.16-7.3,19.32-5.05-9.05-14.44-5.22-21.95-3.48-.51,12.9-28.57,6.96-37.27,10.27-12.53,4.71-16.38,9.42-16.38,14.27,0,8.36,12.02,22.29,8.7,28.74,3.14,8.02,5.39,10.79,16.01,8.53,16.01-10.1,13.93-.89,7.3,9.76-3.99,6.45-8.87,14.44-13.93,16.73-8.7,3.65-11.67,2.8-20.55,1.23-20.21,11.67-19.87-1.4-25.43-12.36-3.65,9.59-2.25,23.52-4.16,34.3-2.97,15.5-8.19,35.87-16.55,48.61-5.39,8.19-10.1,6.62-9.76-2.25,2.25-16.21,3.31-45.98-1.74-54.85-8.02,23.52-11.5,50.69-23.35,74.38-5.22,10.1-10.82,19.7-14.47,30.48-2.59,7.3-1.57,17.41-9.22,15.5-4.88-1.23-1.74-7.3-2.08-12.7-.17-5.05-1.57-13.76-2.46-18.81-4.37,8.19-11.84,20.38-13.59,24.58,4.2,17.75,5.73,27,11.5,31.16,4.37,3.48,11.13,2.63,23.18,3.14,4.88.17,10.27,1.23,14.27,4.2,8.02,5.39,13.07,13.93,20.21,19.52,5.56,4.54,14.27,12.02,22.12,5.91,5.05-3.82,6.28-32.56,17.75-32.22,13.07-15.16,23.86-22.63,39.7-17.58,5.05,1.57,14.98,18.12,5.39,15.67-9.25-2.25-15.67,8.36-19.15,14.64,3.14,4.2,2.63,4.88,1.23,10.96-1.23,4.71-7.13,10.44-8.19,14.47,8.19-2.46,21.09-11.67,26.66-6.11,18.12-14.1,41.1,2.97,38.13,18.3-2.25,11.33-5.91,7.13-8.7,4.71-4.54-3.99-17.44-1.23-21.44,5.91-3.14,11.16-14.44,19.32-20.72,16.21-2.08-.85-2.97-3.31-4.37-5.05-10.27,2.25-2.8,13.07-1.06,17.58,11.84,4.54,12.56,16.01,8.53,28.4-3.31,9.39-9.39,19.32-15.33,27-3.82,5.05-9.05.89-7.48-3.82,2.63-7.3,6.79-8.87,5.56-17.58-.68-4.71-3.65-5.91-5.39-6.11-2.08,2.97-4.54,5.56-10.1,7.13-6.62,2.08-12.02-2.25-16.38-5.56-5.39-4.37-8.53-11.33-14.1-15.84-6.96-5.22-20.72-4.37-23.14,1.91-3.31,8.7,10.27,16.38-2.63,29.42-2.8,9.05-6.11,14.47-1.74,18.12,2.63,2.25,8.7,2.97,3.99,7.65-4.2,3.99-9.59,3.65-14.47,3.82-15.5.68-19.35-8.19-20.72-23.01-5.56-3.82-8.02-6.45-8.53-10.1-.51-2.59-.85-5.91.72-10.1,1.23-2.8,2.8-4.54,3.99-6.79-.46-.57-1.56-.85-3.31-.85-.68,2.08-.17,4.71-1.4,6.96h0l.07-.14ZM681.25,363.66c4.71-2.08,6.45-5.39,8.7-10.79-8.7-.51-12.02-.51-22.46,0,2.63,4.71,7.48,7.65,13.76,10.79h0ZM667.84,689.36c2.25-5.91,2.8-18.3,2.8-18.47-2.97,4.88-6.96,8.87-9.59,11.67,2.46,2.97,3.14,3.82,6.79,6.79h0ZM744.81,576.31c.51,2.97,10.1,13.07,10.27,9.76.51-14.98,4.16-26.49,6.28-39.7-5.73,2.25-17.58,23.69-16.55,29.97v-.03Z"/>
    <path class="cls-1" d="M929.1,1333.63c2.97-3.31,5.22-5.05,7.51-5.05,3.99,0,16.73,7.3,36.93,7.3,30.82,0,52.77-22.12,52.77-48.95,0-30.99-18.47-44.75-49.29-62.87-21.61-12.7-33.11-18.64-33.11-33.45,0-12.19,8.87-20.55,23.35-20.55,17.58,0,29.25,10.27,41.1,31.33l7.3-1.23-1.74-42.5-6.11-.85c-1.23,2.8-2.8,3.65-5.22,3.65-6.28,0-16.55-10.44-38.13-10.44-29.59,0-48.78,18.98-48.78,45.64,0,24.2,16.01,36.93,44.95,54,22.8,13.93,37.27,21.44,37.27,39.19,0,16.01-11.67,26.66-31.54,26.66-17.95,0-32.05-9.22-45.09-28.4l-8.02,2.25,10.79,43.01,5.05,1.23v.03Z"/>
    <path class="cls-1" d="M788.19,1259.76l29.59-67.24,28.4,67.24h-57.99ZM778.26,1281.88h77.35l10.62,25.26c2.08,4.88,2.8,8.53,2.8,11.16,0,3.65-2.25,6.45-6.28,8.19v6.28h47.72v-6.28c-6.11-2.59-9.42-10.79-14.81-23.35l-66.36-150.32h-16.55l-68.27,150.12c-5.56,12.02-9.59,20.38-14.64,23.52v6.28h40.93v-6.28c-3.99-1.74-5.91-4.54-5.91-8.19,0-2.59.72-6.28,2.63-11.16l10.79-25.26v.03Z"/>
    <path class="cls-1" d="M593.97,1152.82v6.45c7.48,2.59,8.87,6.62,8.87,14.64v137.93c0,8.02-1.4,12.19-8.87,14.64v6.28h47.72v-6.28c-7.48-2.42-8.7-6.62-8.7-14.64v-137.93h14.81c24.03,0,37.1,5.77,37.1,25.94,0,18.47-14.64,28.91-43.01,30.99v17.41c9.93,5.39,23.52,18.12,37.44,38.5,12.19,17.41,17.95,29.42,17.95,33.96,0,2.08-1.06,3.82-2.63,5.73v6.28h46.49v-6.28c-9.59-3.65-13.24-14.64-21.61-29.42-16.01-28.23-32.9-46.66-48.4-55.57,28.06-5.91,43.18-21.27,43.18-43.55,0-18.12-9.05-31.88-25.94-39.36-11.33-5.05-26.66-5.73-46.49-5.73h-47.92Z"/>
    <path class="cls-1" d="M440.71,1152.82v6.45c7.48,2.59,8.87,6.62,8.87,14.64v137.93c0,8.02-1.4,12.19-8.87,14.64v6.28h47.72v-6.28c-7.48-2.42-8.7-6.62-8.7-14.64v-137.93h14.81c24.03,0,37.1,5.77,37.1,25.94,0,18.47-14.64,28.91-43.01,30.99v17.41c9.93,5.39,23.52,18.12,37.44,38.5,12.19,17.41,17.95,29.42,17.95,33.96,0,2.08-1.06,3.82-2.63,5.73v6.28h46.32v-6.28c-9.59-3.65-13.24-14.64-21.61-29.42-15.84-28.23-32.73-46.66-48.23-55.57,28.06-5.91,43.01-21.27,43.01-43.55,0-18.12-8.87-31.88-25.77-39.36-11.33-5.05-26.66-5.73-46.49-5.73h-47.92Z"/>
    <path class="cls-1" d="M310.43,1259.76l29.59-67.24,28.4,67.24h-57.99ZM300.66,1281.88h77.35l10.44,25.26c2.08,4.88,2.8,8.53,2.8,11.16,0,3.65-2.25,6.45-6.28,8.19v6.28h47.72v-6.28c-6.11-2.59-9.22-10.79-14.81-23.35l-66.36-150.32h-16.55l-68.27,150.12c-5.56,12.02-9.59,20.38-14.64,23.52v6.28h40.93v-6.28c-3.99-1.74-5.91-4.54-5.91-8.19,0-2.59.68-6.28,2.8-11.16l10.79-25.26v.03Z"/>
    <path class="cls-1" d="M237.62,1227.37l8.19-56.25c.34-1.74.51-3.48.51-5.05,0-8.02-4.16-12.53-10.96-12.53-7.13,0-11.16,4.71-11.16,13.07,0,1.57.34,2.8.51,4.54l8.53,56.25h4.37v-.03Z"/>
    <path class="cls-1" d="M172.32,1187.85v45.98c-9.93-4.71-18.81-7.13-28.74-7.13-32.56,0-57.14,25.09-57.14,56.25s23.52,52.77,52.43,52.77c12.01,0,22.29-4.2,33.45-12.19v12.36h6.79l25.26-17.07v-6.28c-5.91-1.06-6.96-3.99-6.96-11.84v-147.87h-6.79l-27.68,16.9v6.28c7.85,0,9.42,3.31,9.42,11.84h-.03ZM172.32,1307.48c-8.36,6.45-16.38,9.76-25.09,9.76-19.52,0-34.3-16.9-34.3-40.24,0-21.06,12.36-34.65,31.16-34.65,11.33,0,20.38,4.88,28.23,14.64v50.52-.03Z"/>
    <path class="cls-1" d="M195.84,1129.31h17.07l64.44-149.95c2.59-6.11,5.91-11.16,9.93-15.16v-6.11h-38.67v6.11c3.82,1.06,5.73,3.14,5.73,5.91,0,2.42-.51,5.22-1.4,7.3l-46.49,109.74-46.87-109.91c-.85-1.91-1.4-4.71-1.4-6.79,0-3.31,1.91-5.05,5.94-6.28v-6.11h-44.75v6.11c5.22,3.82,7.65,8.02,9.76,12.7l66.7,152.41h0v.03ZM292.68,1000.42l21.27-8.87v-24.2l-21.27,9.05v24.03h0ZM315.14,1107.9c0,7.65.68,11.33,8.02,13.93v5.91h-39.87v-5.91c7.3-2.63,8.19-6.28,8.19-13.93v-50.86c0-5.39-.68-7.3-8.19-8.36v-5.91l24.75-16.21,7.13,2.97v78.37h-.03ZM370.33,1107.9v-149.78h-6.45l-25.77,16.01v5.91c7.3,0,8.7,3.14,8.7,11.16v116.7c0,7.65-.85,11.33-8.19,13.93v5.91h39.9v-5.91c-7.3-2.63-8.19-6.28-8.19-13.93h0ZM427.13,1107.9v-149.78h-6.45l-25.77,16.01v5.91c7.3,0,8.7,3.14,8.7,11.16v116.7c0,7.65-.85,11.33-8.19,13.93v5.91h39.87v-5.91c-7.3-2.63-8.19-6.28-8.19-13.93h.03ZM477.31,1090.46l77.86-29.25c-5.73-21.27-24.92-34.65-51.37-34.65-28.91,0-52.77,21.44-52.77,53.11,0,28.23,23.69,51.03,52.6,51.03,21.95,0,39.01-10.27,51.03-30.14l-8.87-6.62c-8.87,13.07-20.38,19.32-35.36,19.32s-27-7.65-33.08-22.8h-.03ZM474.51,1076.02c-.34-2.59-.34-4.71-.34-5.91,0-16.9,11.84-28.4,28.74-28.4,11.5,0,20.38,5.39,23.35,14.81l-51.75,19.49h0Z"/>
    <path class="cls-4" d="M715.39,301.47c-1.4-2.97-1.91-4.71-1.91-8.36h6.08c0,1.06-1.02,5.91-4.16,8.36h0Z"/>
    <path class="cls-3" d="M634.05,272.39c5.05-3.99,11.5-17.95,18.81-19.52,7.3-1.4,28.91,9.42,32.22,7.85,3.14-1.4-14.47,10.62-18.3,15.67-3.99,5.05-29.76,2.8-32.39,1.91-2.59-.85-1.23-5.22-.34-5.91h0Z"/>
    <path class="cls-4" d="M638.42,596.69c-42.15,4.37-52.77-29.42-60.07-53.45-4.88-15.84-7.51-36.22-5.39-59.22,1.74-17.75,6.96-35.53,11.67-51.75,1.4-4.71-4.54-9.05-8.02-5.05-2.8,3.31-16.21,16.9-32.56,28.23-14.64,9.93-31.54,18.12-45.64,15.84,10.62-9.22,20.21-19.69,28.74-30.99,12.36-16.38,22.46-34.65,30.82-53.49,7.85-17.75,14.1-36.22,19.15-54.51.51-12.9-6.79-7.65-9.05-1.4-4.16,12.73-10.1,22.29-14.1,27.17-13.41,15.5-31.71,26.66-50.01,30.99,8.19-5.39,19.32-26.32,30.31-46.32,12.9-23.52,22.29-68.44,32.39-68.98,8.19-1.74,14.27-9.76,17.24-15.16.68,4.16.34,9.93,6.45,8.02,2.63-.85,1.91-5.56,1.57-9.05-.85-5.91-3.65-12.36-4.71-15.33-1.4-3.48-5.91,4.54-10.27,5.39-4.71-4.37-2.08-10.62.34-15.33,5.56-10.79,9.93-9.76,15.5-5.22,4.37,3.48,8.36,9.76,8.53,17.41,0,4.71,7.85-.68,8.53-3.82,4.37-16.21-9.93-25.94-21.06-27.89-.85-3.82-1.57-3.99-1.91-9.22,2.8,2.59,7.13,4.54,10.79,5.05,6.96.89,20.21,0,33.45.68,15.16.68,30.65.17,36.39,4.71,4.2,3.48,7.13,14.1,13.24,16.9,5.39,2.63,9.05,1.57,13.41,1.57,4.88,0,9.05.17,13.24,1.91,3.99,1.57,7.48,5.56,12.87,10.79,5.73,5.73,13.76,3.31,21.78,7.48,3.31,1.74.34,7.48-3.48,7.85-3.14.51-7.48-1.06-10.96-1.06-3.65-.17-6.79,2.97-3.65,5.91,2.08,2.08,5.91,3.31,7.3,6.11,1.23,2.25-.34,7.3-2.63,11.5-16.01,1.4-29.97,1.4-42.33,5.39-13.93,4.37-29.63,12.36-35.7,35.87-4.54,17.95,3.48,29.97,11.67,37.96,7.13,7.13,20.89,13.41,34.65,17.07.89,6.45-5.73,13.76-10.62,17.41-6.62-6.11-15.84-8.87-28.74-9.93-9.93-.85-16.01-6.79-19.32-21.61-1.06-4.54-7.48-6.79-8.36-2.08-.85,3.65-1.4,9.42-1.57,14.64-.51,25.26,5.91,44.58,17.95,56.42,12.02,11.67,30.82,18.64,55.23,11.84,25.94-7.48,57.14-29.59,71.41-48.44-4.88,21.06-4.37,21.44-10.44,39.19-8.19,23.35-19.87,40.58-34.47,53.66-11.5,10.1-24.2,18.3-41.44,20.04-26.32,2.97-47.04-9.25-46.15-31.71.17-3.14-6.79-12.53-10.27-4.71-3.65,8.19-5.05,11.33-5.05,20.21.17,16.55,6.11,29.42,13.41,39.53,19.49,26.49,35.36,27.34,56.42,27.85-18.81,15.5-37.79,33.08-56.42,35.02l-.07.1Z"/>
    <path class="cls-5" d="M634.05,272.39c5.05-3.99,11.5-17.95,18.81-19.52,7.3-1.4,28.91,9.42,32.22,7.85,3.14-1.4-14.47,10.62-18.3,15.67-3.99,5.05-29.76,2.8-32.39,1.91-2.59-.85-1.23-5.22-.34-5.91h0Z"/>
    <path class="cls-4" d="M861.85,746.12c-5.73-5.39-12.36-8.53-24.92-5.73-10.27,6.45-13.59,10.96-12.19,17.58,1.06,4.71,8.36,12.53,3.31,15.67-4.2,2.46-4.71-2.25-9.59-3.65-8.36-2.25-12.02,1.4-19.7,7.13-2.25-7.65,1.57-10.62,8.7-11.16.85-.89,1.74-1.74,2.42-3.14-1.74-1.23-2.8-1.23-4.88-.89.51-5.56,1.4-9.76,3.31-14.44,1.57-4.2-5.22-5.73-7.48-2.63-8.36,12.53-16.01-2.42-18.64,5.91-1.23,3.82-.34,10.62-1.4,16.55-.68,3.99-3.48,9.76-6.79,12.19.51-8.19-1.4-11.84.51-24.92,1.06-8.19,6.11-16.01,6.45-25.09.17-6.28-7.48-5.56-8.7.34-1.91,8.7-6.79,16.21-9.93,24.54-7.13,6.28-11.84,19.7-16.73,30.48.51-6.28,1.57-18.3,7.48-30.14,7.65-15.67,6.96-32.22-2.46-31.71-.34,4.37-.34,10.1-3.65,15.67-1.91,3.31-15.84,17.95-21.95,23.01.51-20.38,10.27-39.19,8.02-57.65-1.23-10.62-3.82-18.81-10.82-21.95-6.45-2.97-5.39,2.25-8.36,10.62-1.4,3.48-2.97,7.85-6.11,12.36-4.54,6.79-8.36,13.59-14.27,18.47-4.54-7.48-12.73-18.81-18.98-27.34,3.82-13.59,6.96-27.68,4.71-39.36-1.23-5.39-5.05-5.91-6.96-2.59-6.11,10.1-8.7,15.67-16.55,23.86-8.7-10.79-12.53-22.46-10.27-32.73,2.63-11.84,12.9-24.92,31.16-26.66,18.12-1.74,25.77,18.12,38.84,31.16,1.57,1.57,24.2,19.52,23.52,4.88-.34-7.68-.89-55.57,1.57-66.36,3.48,4.2,8.19,8.02,11.84,11.33,1.74,17.95,1.02,43.18,5.91,64.96,1.91,8.53,8.87,2.97,8.02-2.59-.72-3.99-.34-23.86,2.97-30.65,2.97,13.07,7.85,22.63,12.19,25.26,5.73,3.48,14.98.34,30.65,3.31,9.76,1.91,15.87,13.59,23.86,21.44,4.88,5.05,14.47,9.93,22.97,9.59,6.62-.34,12.73-3.82,17.07-12.36,2.46-5.05,5.91-23.35,7.51-20.72,3.14,5.73,6.79,8.7,17.24,10.96,6.62,1.57-6.79,10.96-8.02,23.86-4.71,1.91-11.67,6.28-16.38,6.79-4.54.68-6.96-2.42-8.02.34-1.91,4.88,2.63,6.79,6.62,6.79,8.87.17,24.03-9.42,30.99-12.9,4.88-2.63,14.98-10.1,14.81-4.71-.17,10.44,2.08,12.9,7.13,21.61,2.25,3.82-5.05,9.59-7.51,7.85-6.28-4.34-6.62-8.87-9.22-8.36-2.63.51-5.73,4.37-12.19,11.33-11.5,2.46-23.01-.17-32.56.72-2.08.34-3.48,6.79,0,7.13,14.1,1.57,21.61,1.4,31.88,1.06,1.91,2.25,2.8,5.56,3.65,8.02-9.93,5.56-7.3,14.44-14.64,24.2-7.68,9.93-19.87-11.16-25.6-16.55l.14.03Z"/>
    <path class="cls-4" d="M594.52,718.61c-7.3-12.36-3.31-29.08-3.31-58.33.17-12.7-.17-52.6-.68-68.81,25.26,22.63,52.94,19.52,83.25-1.23,16.9-11.5,35.53-27.34,40.58-30.82,12.7-8.36,6.28-13.76-4.37-9.93-6.28,2.46-13.07,2.97-16.01,3.14-15.5,1.06-29.76-5.39-40.41-15.33-10.62-9.76-17.58-23.86-18.64-39.7,7.13,14.1,23.18,19.52,39.01,21.61,10.79,1.57,22.46,2.42,45.64-10.96,4.88-2.97,9.25-7.3,13.93-10.79,13.24-.85,20.55-5.73,31.33-13.07,22.12-14.64,43.72-40.24,60.28-54,9.39-8.02,18.3-10.44,24.2-16.01,6.79-6.28,12.02-14.47,10.96-28.23-.85-12.01-10.27-27.85-3.82-42.15,12.19-2.25,23.69-9.59,22.29-6.62-1.23,2.97-2.97,9.42-1.23,17.07,1.06,4.16,4.88,6.79,5.73,9.76.85,2.8-2.42,5.39-4.71,11.33-2.63,6.79.68,11.33,6.79,6.62,13.24-9.93,15.84-27.51,20.21-40.76,4.16-12.7,10.1-3.99,15.67-.85,5.73,3.31,14.1,2.25,13.24,6.79-1.06,5.39-9.93,9.93-16.55,14.81-10.99,8.02-20.72,23.52-12.19,29.25,7.34,5.05,14.1-2.59,19.7-8.19,5.39-5.73,10.62-11.33,17.95-8.87,1.23,6.96,1.06,15.16.51,24.03-2.63,3.31-18.3,1.91-20.38,2.25-14.81,2.08-25.26,6.96-29.63,14.47-4.88,8.53-1.91,21.44,5.73,35.87-.85,6.11-4.88,11.67-6.79,17.95-1.57,5.56-.89,14.27-6.28,16.9-11.67-15.16-5.05-29.76-9.59-46.32-1.4-5.05-3.65-4.71-6.28-2.08-4.16,4.37,2.08,15.5-.34,23.69-3.48,10.44-6.11,9.93-8.02,18.64-2.8,12.19-1.4,41.98-9.25,54.51-.68-6.96-5.56-32.22-5.91-37.1-.34-4.2,3.65-23.18,10.62-37.62,2.42-4.88-5.05-9.93-7.85-5.22-5.22,8.36-7.65,12.01-9.39,21.78-8.02,18.98-14.1,37.1-18.3,55.4-4.88,21.27-12.56,41.1-24.37,62.19-5.56-8.87-2.08-41.98.34-50.52,1.23-4.37,5.56-17.58,6.96-23.01,1.06-5.05-6.45-7.48-8.87-2.25-5.22,11.84-6.79,22.46-8.19,33.08-1.23,9.22-1.74,18.64-5.73,28.57-2.46,6.62-11.67,25.77-19.52,42.5-.51-30.99,1.4-57.14,11.5-88.13-.72-5.39-5.73-5.05-10.62-2.63-14.47,7.68-27.34,32.05-29.97,43.73-5.05,21.78-5.05,52.6-4.71,74.89-6.45-5.39-12.36-8.36-23.35-22.29-13.76-17.58-27.85-24.54-49.63-9.22-14.81,10.44-20.21,22.63-20.21,34.3.17,11.84,5.73,23.01,13.24,31.37,14.81,16.73,14.98,14.81,21.06,22.63,6.28,7.85,13.76,17.58,19.87,29.8,4.37,8.19,7.48,16.73,8.19,23.86-.68.17-15.33-6.96-36.04-15.5-30.14-12.36-58.54-10.62-67.75-26.11l.1-.14Z"/>
    <path class="cls-4" d="M661.05,793.67c-2.25-8.19-3.14-34.13-2.59-41.44,4.16,1.74,12.02,4.71,17.07,7.68-4.2,7.3-9.93,25.77-12.36,33.28-.68.17-1.4.17-2.08.51l-.03-.03Z"/>
    <path class="cls-4" d="M594.35,730.29c-1.23,6.62.68,39.36,5.05,59.39,3.65,17.07,2.63,22.12,1.57,36.22-.17,1.91-.72,5.73,2.42.51,12.36-20.21,18.12-69.84,24.54-82.57-7.3-2.42-25.6-3.31-33.62-13.59l.03.03Z"/>
    <path class="cls-4" d="M730.88,346.25c-28.4,3.14-44.07-4.88-69.15-1.23,11.84-13.93,48.23-15.16,66.01-16.73,19.66-1.91,40.07-6.79,63.73-19.15-7.48,14.1-32.05,34.13-60.62,37.1h.03Z"/>
    <path class="cls-2" d="M658.42,283.55c-9.76,2.08-17.58-1.74-29.59-1.91-3.82,0-2.63-5.39-.51-7.13,1.91-1.57,7.85-9.59,10.27-12.9,7.3-9.93,10.96-12.7,16.9-13.93,8.87-1.91,18.47,2.25,34.82,5.91,1.74.34.17,7.13-6.11,8.19-6.79,1.4-15.16-3.48-18.64-5.22-1.4-.68-8.36-1.91-11.16-.17-4.16,2.42-11.84,12.53-15.16,17.07,6.28.82,10.4,1.05,12.36.68,4.16-6.96,13.76-6.11,15.67-2.08,1.4,3.14-.34,9.76-8.87,11.5h.03Z"/>
    <path class="cls-4" d="M698.66,369.05c-1.4-.51-4.71-1.06-6.11-1.4-1.4-5.22,2.46-8.7,6.28-9.93,1.57,4.54,1.74,6.79-.17,11.33h0Z"/>
    <g>
      <path class="cls-4" d="M899.47,478.79c2.8-5.22,2.46-10.62,5.73-15.67,4.71,6.62,6.62,9.05,17.07,9.05-3.99,9.42-14.47,16.21-22.84,6.62h.03Z"/>
      <path class="cls-4" d="M976.64,394.14c-6.28-4.88-16.38-4.88-24.92-2.08.17-4.71.17-11.67.68-15.16,17.95-4.88,23.35,8.19,24.2,17.24h.03Z"/>
      <path class="cls-4" d="M934.66,333.86c-1.57-1.57-7.65-3.65-11.5-5.05,8.7-15.33,22.29-19.69,32.05-11.5-12.7,2.63-13.59,10.62-20.55,16.55Z"/>
      <path class="cls-4" d="M864.82,331.61c.34-15.33,5.39-30.99,21.06-29.42-5.73,6.11-10.27,13.41-9.93,23.35.17,2.97-6.79,5.73-11.13,6.11v-.03Z"/>
    </g>
    <g>
      <path class="cls-4" d="M806.15,783.77c2.25-5.22,9.05-7.13,15.33-2.59-3.14,7.48-4.37,15.33-2.08,23.01-10.1,2.08-17.75-9.42-13.24-20.38v-.03Z"/>
      <path class="cls-4" d="M909.4,768.79c-3.14-5.91-5.39-8.19-9.93-9.93.34-10.1,6.45-15.16,10.62-12.36,8.36,5.56,1.23,24.2-.72,22.29h.03Z"/>
      <path class="cls-4" d="M932.41,700.32c-4.88-5.05-3.65-9.59.17-12.7,11.5-9.93,33.79.34,27.89,7.68-13.41-1.06-16.9.68-28.06,5.05v-.03Z"/>
      <path class="cls-4" d="M891.48,651.23c2.08-8.53,20.55-17.95,30.65-13.76-12.02,6.11-14.27,12.7-20.38,22.63-4.88,1.23-11.84-2.63-10.27-8.87Z"/>
    </g>
  </g>
</svg>