<?xml version="1.0" encoding="UTF-8"?>
<svg id="Calque_1" xmlns="http://www.w3.org/2000/svg" version="1.1" viewBox="0 0 1465.7 1109">
  <!-- Generator: Adobe Illustrator 29.6.0, SVG Export Plug-In . SVG Version: 2.1.1 Build 207)  -->
  <defs>
    <style>
      .st0 {
        fill: #e7d8c9;
      }
    </style>
  </defs>
  <path class="st0" d="M727.4,106.8c68.2,60,146.8-51.8,74.8-96.5-65.6-40.8-128.1,49.7-74.8,96.5ZM919.8,82.5c-3.3-3.6-22.8-11.9-28.5-14.2-11.5-4.8-45.1-21.8-47.5-.4-1.7,15.3,21.3,17.5,32.9,22.4,6.6,2.8,26.1,13.6,30.9,14.2,12.2,1.5,20.7-12.6,12.2-22h0s0,0,0,0ZM1134.4,56.9c-8.2.5-35.6,2.3-41,7-7.5,6.6-3.9,20.3,6.4,22.2,8.7,1.6,33.5-3.9,44.6-4.3,11.4-.3,38,4.3,45.7-.8,6.4-4.1,6.4-15.7.9-20.2-7.1-5.8-46-4.6-56.6-4h0s0,0,0,0ZM1228.2,72c-4.3,4-4.6,11.6-1.8,16.6s27.1,12.3,34.3,15.2c8.9,3.6,26,14.8,34.6,12s10.9-13.9,5.3-20.4c-5.2-6-56.9-27.6-64.4-26.9-1.9.2-6.5,2.2-7.9,3.5h0ZM1390.6,96.2c-62.4-30.1-118.8,40-78.8,94.2,4.2,5.7,7.9,5.3,11.5,7.6,2.7,1.7,5.3,5.5,9.7,7.6,22,10.5,46,8.7,64.7-5.1,35.3-26.2,33.2-84.8-7-104.3h0ZM1021.9,94.4c-8,2-32.7,23.1-36.6,23.4-3.2.3-12.3-11.8-20.5-11.4-8.9.5-15,9.1-12.3,17.6,1,3.1,21.4,19.4,25.7,22.4,2.5,1.8,5.2,4.9,8.2,4l52.3-37.9c5.4-12.3-3.8-21.5-16.7-18.2h0ZM675.8,849.3v-102.8h-145.5c-19.3-77.8-38.2-156.1-52-235.2-22.9-131.1-37-239.2,55.1-347.5l19.5-20.3c-136.2,56.9-272,132.7-380.3,234C9.2,530.1-85.6,752.2,108,928.1c209.1,189.9,615.3,200.4,880.3,164.8,83.3-11.2,165.9-28.5,247-50l1.6-4.4V355.7c-8.3-97.5-155.6-99.5-162.2,1.5v523.4c-18.8,123.4-193.6,132.3-224.5,11.8l-.3-527.7c-6.8-107.3-148.7-110.5-162.1-7.5v483.1c-4.2,61.9-86.6,59.7-91.5,3-.8-9.7-1.2-32.9,0-42.1.7-5.5,5.5-9.6,9.9-5.2,6.8,6.9-3.6,48.1,7.6,64.4,16.6,24.2,57.7,15.9,62.2-11.2h0s0,0,0,0ZM1427.7,284.1c9.8,10,24.4,1.1,21.7-15-1.4-8.7-18.5-46.9-23.9-54.1-9.3-12.4-26.4-5.5-24.7,8.1.8,6,12.8,26,16.1,33.4,2.6,5.7,7.9,24.8,10.7,27.6h0ZM1444.8,320.8c-2.8.8-7.4,6.1-7.1,9.4,2.5,22.6-1,50.2,1.6,72.1,1.7,14.3,22.1,14.7,25.2-.4,2.6-12.9.8-56-1.2-70.1-1.4-9.4-9.3-13.7-18.3-11h0ZM1443.3,452.8c-5,1.1-8.9,6.3-9.7,11.3-.5,23.4-7.2,48.6-7.9,71.6-.6,17.5,15.7,23.2,25.3,8.7l9.1-79.2c-.9-8.7-7.9-14.3-16.7-12.4h0,0ZM1438.8,605.9c-5.5-6.5-19.7-3.9-22,4.9l-13.3,78c1.9,15.8,21.7,17.5,26.1,2.3.5-22.4,12.9-54.8,12.4-75.9,0-2.1-1.9-7.7-3.2-9.3h0,0ZM1384.3,846.5c6.4,6.4,17.4,3.7,21.3-3.9l12.8-77.2c2.4-15.8-18.4-20.1-24.9-6.8-1.7,24.2-11.4,52.2-12.7,75.9-.3,4.8,0,8.6,3.5,12.2h0s0,0,0,0ZM1420.3,972.1c33.8-32.9,17.5-91.7-28.7-102.2-46.2-10.4-87.1,32.6-72.4,78.4,14.1,44.1,68.4,55.6,101.2,23.8h0,0Z"/>
  <path class="st0" d="M675.8,849.3c-4.5,27.1-45.6,35.4-62.2,11.2-11.2-16.4-.7-57.5-7.6-64.4-4.3-4.3-9.1-.2-9.9,5.2-1.2,9.2-.8,32.4,0,42.1,4.9,56.7,87.3,58.9,91.6-3v-483.1c13.3-103.1,155.2-99.8,162,7.5l.3,527.7c30.9,120.5,205.7,111.6,224.4-11.8V357.2c6.6-101,153.9-99,162.2-1.5v682.6s-1.5,4.4-1.5,4.4c-81.1,21.5-163.7,38.8-247,50-265,35.7-671.2,25.2-880.3-164.8C-85.6,752.2,9.2,530.1,172.5,377.5c108.2-101.2,244-177,380.3-234l-19.5,20.3c-92.1,108.3-77.9,216.4-55.1,347.5,13.8,79.1,32.8,157.4,52,235.2h145.5v102.8h0s0,0,0,0ZM276.4,755.8c-1.8.3-26.4,14-28,15.6-4.3,3.9-3.9,10.6,2.2,11.2,3.2.3,31-16,31.9-19.1,1.7-5.5-.3-8.7-6.1-7.7h0,0ZM165.8,831.3c-2,14.1,0,37.3,0,52.5s9.8,5.2,11.7-3.3c5-23.1-10.5-55.3,16.9-70.1,7.7-4.1,13.6-2.5,19-4.9,7-3.2,3.5-10.7-4.9-11-18.5-.7-40.2,18.8-42.8,36.9h0s0,0,0,0ZM222.8,847h74.2c10.1,0,3.5-20.7.8-26.3-16-32.8-61.6-34.9-80.1-3.6-22.5,38.1,13.2,79.5,55,67,5.9-1.8,22.2-11.4,17.5-18.9-3.8-5.9-16.5,5.9-21.2,7.6-20.5,7.4-41.1-4.9-46.1-25.8h0s0,0,0,0ZM363,875.5c-10.2,2-34.5,0-46.5,0s-3.1,10.5,0,10.5h51c1.4,0,8.9-4.6,10.5-6,14.3-12.8,8.6-37.7-10-42.5-14.1-3.6-39.2,5.6-44-13-1.6-6.1,5.2-18,9.1-18h46.5c3.5,0,5-12,0-12h-46.5c-.8,0-6.7,3-8.1,3.9-14.6,8.5-17.4,27.7-6.2,40.4,15.3,17.3,43.8,4.1,52.1,13.2,7.3,7.9,2.1,21.6-7.8,23.5h0ZM407.3,847h72.8c.4,0,4.9-3,5.4-3.7,2.3-3-1-14.8-2.4-18.8-8.2-22.7-32.8-34.7-55.9-27.5-54.9,17.1-36.6,100.6,25.3,88.3,7-1.4,26.3-11,20.7-20.1-3.9-6.3-15,5.2-18.9,6.9-20,8.5-44.5-3-46.9-25.1h0ZM575.6,885.6c2.5,2.6,8.7,1.4,9.9-2.1,1.3-3.8.8-38.5.3-44.8-2.8-37-44.2-57.5-74.3-33.6-45.3,36,5,108.6,55.8,70.9,2.6-1.9,3.9-5,6.4-6.4.3,4.2-1.1,13,1.9,16.1h0,0Z"/>
  <path class="st0" d="M1318.8,195.4c-53.2-46.8,9.3-137.3,74.8-96.5,71.9,44.7-6.7,156.5-74.8,96.5Z"/>
  <path class="st0" d="M727.4,106.8c-53.2-46.8,9.3-137.3,74.8-96.5,72,44.7-6.7,156.5-74.8,96.5Z"/>
  <path class="st0" d="M1420.3,972.1c-32.7,31.8-87.1,20.3-101.2-23.8-14.6-45.8,25.9-88.9,72.4-78.4s62.6,69.2,28.7,102.2h0,0Z"/>
  <path class="st0" d="M1134.4,56.9c10.6-.6,49.5-1.8,56.6,4,5.6,4.5,5.6,16.1-.9,20.2-7.8,5-34.3.4-45.7.8-11,.3-35.9,5.9-44.6,4.3-10.3-1.9-13.9-15.6-6.4-22.2,5.4-4.7,32.8-6.5,41-7h0Z"/>
  <path class="st0" d="M1021.9,94.4c12.8-3.3,22.1,5.9,16.7,18.2l-52.3,37.9c-3.1.9-5.8-2.2-8.2-4-4.3-3-24.7-19.2-25.7-22.4-2.7-8.5,3.4-17.2,12.3-17.6,8.2-.4,17.3,11.6,20.5,11.4,3.9-.4,28.7-21.4,36.6-23.4h0Z"/>
  <path class="st0" d="M1443.3,452.8c8.7-1.9,15.8,3.8,16.7,12.4l-9.1,79.2c-9.6,14.5-25.8,8.8-25.3-8.7.8-23,7.5-48.2,7.9-71.6.8-5,4.7-10.2,9.7-11.3h0,0Z"/>
  <path class="st0" d="M1384.3,846.5c-3.5-3.5-3.8-7.4-3.5-12.2,1.3-23.6,11-51.7,12.7-75.9,6.4-13.2,27.3-8.9,24.9,6.8l-12.8,77.2c-3.8,7.7-14.9,10.3-21.3,3.9h0s0,0,0,0Z"/>
  <path class="st0" d="M1438.8,605.9c1.3,1.6,3.1,7.2,3.2,9.3.5,21.1-11.9,53.5-12.4,75.9-4.3,15.2-24.1,13.4-26.1-2.3l13.3-78c2.3-8.8,16.6-11.4,22-4.9h0,0Z"/>
  <path class="st0" d="M1444.8,320.8c9.1-2.7,16.9,1.6,18.3,11,2.1,14,3.8,57.2,1.2,70.1-3.1,15.1-23.5,14.7-25.2.4-2.6-21.9.9-49.5-1.6-72.1-.3-3.2,4.4-8.5,7.1-9.4h0Z"/>
  <path class="st0" d="M1427.7,284.1c-2.8-2.8-8.1-21.9-10.7-27.6-3.3-7.4-15.3-27.4-16.1-33.4-1.8-13.6,15.4-20.5,24.7-8.1,5.4,7.2,22.4,45.5,23.9,54.1,2.7,16.1-11.9,25-21.7,15h0Z"/>
  <path class="st0" d="M919.8,82.5c8.6,9.4,0,23.5-12.2,22-4.9-.6-24.3-11.3-30.9-14.2-11.6-5-34.6-7.1-32.9-22.4,2.4-21.5,36-4.4,47.5.4,5.7,2.4,25.2,10.6,28.5,14.2h0s0,0,0,0Z"/>
  <path class="st0" d="M1228.2,72c1.4-1.3,6.1-3.3,7.9-3.5,7.5-.7,59.2,20.9,64.4,26.9,5.7,6.5,2.9,17.8-5.3,20.4-8.6,2.7-25.7-8.4-34.6-12-7.2-3-31.3-10-34.3-15.2s-2.5-12.7,1.8-16.6h0Z"/>
  <path class="st0" d="M407.3,847c2.4,22.1,26.9,33.6,46.9,25.1,3.9-1.7,15-13.2,18.9-6.9,5.7,9.2-13.7,18.7-20.7,20.1-61.9,12.3-80.2-71.2-25.3-88.3,23.1-7.2,47.7,4.7,55.9,27.5,1.5,4,4.7,15.8,2.4,18.8-.5.7-5,3.7-5.4,3.7h-72.8,0ZM473.3,835c-4.6-37.5-61.5-38.3-66,0h66Z"/>
  <path class="st0" d="M222.8,847c4.9,20.9,25.5,33.3,46.1,25.8,4.8-1.7,17.5-13.5,21.2-7.6,4.8,7.5-11.5,17.1-17.5,18.9-41.7,12.6-77.5-28.8-55-67,18.5-31.3,64.1-29.2,80.1,3.6,2.7,5.6,9.4,26.3-.8,26.3h-74.2s0,0,0,0ZM290.3,835c-6.9-38.4-59.6-37.7-67.5,0h67.5Z"/>
  <path class="st0" d="M575.6,885.6c-3-3.1-1.5-11.9-1.9-16.1-2.5,1.4-3.8,4.5-6.4,6.4-50.9,37.7-101.1-34.9-55.8-70.9,30.1-23.9,71.5-3.3,74.3,33.6.5,6.4,1,41-.3,44.8-1.2,3.6-7.4,4.8-9.9,2.1h0,0ZM532.9,806.9c-44.2,7.5-29.7,82.2,18.4,66.4,38.3-12.6,25.7-73.9-18.4-66.4Z"/>
  <path class="st0" d="M363,875.5c9.9-2,15-15.6,7.8-23.5-8.3-9.1-36.8,4.1-52.1-13.2-11.2-12.7-8.5-32,6.2-40.4,1.4-.8,7.3-3.9,8.1-3.9h46.5c5,0,3.5,12,0,12h-46.5c-3.9,0-10.7,11.9-9.1,18,4.9,18.6,30,9.3,44,13,18.6,4.8,24.3,29.7,10,42.5-1.5,1.4-9.1,6-10.5,6h-51c-3.1,0-3.1-10.5,0-10.5,12,0,36.3,2,46.5,0h0Z"/>
  <path class="st0" d="M165.8,831.3c2.6-18.1,24.2-37.6,42.8-36.9,8.4.3,11.8,7.9,4.9,11-5.5,2.5-11.4.8-19,4.9-27.4,14.8-11.9,46.9-16.9,70.1-1.8,8.6-11.7,5.8-11.7,3.3,0-15.2-2-38.4,0-52.5h0s0,0,0,0Z"/>
  <path class="st0" d="M276.4,755.8c5.8-1,7.9,2.2,6.1,7.7-1,3.1-28.7,19.4-31.9,19.1-6.1-.6-6.5-7.3-2.2-11.2,1.7-1.5,26.2-15.2,28-15.6h0,0Z"/>
  <path class="st0" d="M473.3,835h-66c4.5-38.3,61.4-37.5,66,0Z"/>
  <path class="st0" d="M290.3,835h-67.5c7.9-37.7,60.6-38.4,67.5,0Z"/>
  <path class="st0" d="M532.9,806.9c44-7.5,56.6,53.8,18.4,66.4-48.1,15.8-62.5-58.9-18.4-66.4Z"/>
</svg>