<?xml version="1.0" encoding="UTF-8"?>
<svg id="Calque_2" data-name="Calque 2" xmlns="http://www.w3.org/2000/svg" viewBox="0 0 1968.38 1222.49">
  <defs>
    <style>
      .cls-1 {
        fill: #fff;
      }

      .cls-2 {
        fill: none;
      }
    </style>
  </defs>
  <g id="Calque_1-2" data-name="Calque 1">
    <g>
      <path d="M1575.91,871.09c.39-.05,1.49-2.01,2.01-1.35l18.19,136,16.79-133.71c1.87-3.09,23.59.22,28.32-.94l-28.54,171.4c-.38,1.83-1.53,1.99-3.1,2.29-7.96,1.51-19.87-1.19-28.35.07l-31.57-173.76c8.24-.8,18.27,1.09,26.25,0Z"/>
      <path d="M1180.75,919.56h-24.91c-5.16-6.61,2.62-26.08-9.48-28.27-10.18-1.84-13.02,5.47-13.93,14.28-3.13,30.4,31.46,36.75,44.87,59.85,9.08,15.64,9.37,47.86.54,63.66-16.44,29.44-75.19,21.39-75.19-17.29v-19.52h26.93c-1.27,12.58.29,38.32,19.86,29.95,8.36-3.57,7.85-21.53,6.92-29.13-3.02-24.65-39.26-34.06-48.02-59.69-6.11-17.89-4.03-47.71,12.5-59.61,13.02-9.37,40.35-8.48,51.2,3.99,2.88,3.31,8.71,15.56,8.71,19.56v22.21Z"/>
      <path d="M1251.44,1044.77l-4.04-9.44c-16.46,21.59-43.38,10.86-48.82-14.44-7.72-35.9,10.99-60.36,48.15-58.24-1.35-8.77,4.94-33.12-8.72-33.52-9.08-.27-10,10.38-10.14,17.36h-25.58c-3.03-28.52,16.72-42.02,43.61-38.9,15.61,1.81,26.14,11.66,27.73,27.47,3.1,30.81-.75,69.1-.05,101.02.07,3.42,2.72,6.53-.61,8.69h-21.54ZM1248.07,1005.05c.65-6.07,0-13.86,0-20.2,0-3.91-22.45-4.04-24.3,14.74-.81,8.17-1.08,21.31,9.41,23.05,10.82,1.79,13.99-9.12,14.89-17.6Z"/>
      <path d="M1476.95,877.82v32.31h16.16v22.89h-16.16v86.84c0,4.28,13.16,3.51,16.16,3.37v19.52c-17.31,7.29-41.07,5.49-43.14-17.45-2.55-28.25,2.01-60.25.06-88.92l-2.21-3.18-12.63-.96.02-22.12,12.64-.15c3.34-1.25.83-2.69.83-3.2v-28.95h28.27Z"/>
      <rect x="1296.54" y="910.14" width="26.93" height="134.64"/>
      <rect x="1499.84" y="962.64" width="47.12" height="25.58"/>
      <rect x="1296.54" y="863.01" width="26.93" height="28.27"/>
      <g>
        <path d="M282.73,0l103.01,250.43L490.26.18l446.83.47,172.98,439.61h105.69v346.01h-156.85l-2.02,436.22h-265.23v-156.18h-90.21l-49.8-129.24c2.41,83.62-38.45,162.96-105.95,211.12-102.14,72.87-249.76,66.91-356.76,7.21-61.27-34.18-108.4-87.17-160.03-133.55v-3.99s145.98-171.95,145.98-171.95c.62-1.67-.29-2.58-1.12-3.83-2.18-3.28-12.87-11.03-16.93-15.4-85.05-91.41-85.76-235.26-5.39-329.9,6.93-8.16,14.92-15.33,22.04-23.26L0,0h282.73ZM608.55,113.09h-39.72l-147.37,407.33c-2.96,1.99-24.72-3.03-30.37-3.41-6.67-.45-39.43,1.42-41.73-1.35L203.97,113.09h-41.06l149.4,409.88c-12.04,5.64-24.7,9.63-36.33,16.22-89.12,50.45-95.8,171.4-11.17,230.68,39.16,27.43,87.7,43.35,132.37,59.5l-47.13,123.85h40.39l41.05-107.68c34.74,18.82,64.6,43.13,67.98,85.48,6.63,83.14-64.33,124.38-139.38,120.53-57.55-2.95-109.63-31.18-149.48-71.37l-25.98,30.5c-.25,1.63,11.07,11.37,13.26,13.23,61.99,52.5,148.98,78.84,229.19,56.82,75.4-20.69,121.26-85.63,109.93-164.36-7.5-52.14-46.63-85.11-91.21-107.38l2.38-11.15,273.27-.62,58.08,155.99h39.72c.82,0,1.85-.97,3.35,0l-143.52-371.55,22.6-62.4,271.06-2.28,3.13,2.25,12.33,34.11h-245.04v36.35h161.56v519.69h39.04v-519.69h59.24l31.64,83.47h41.06l-30.97-83.47h61.93v-36.35h-76.74l-170.53-440.32-39.65.9-160.09,415.18-53.13-134.66-40.28-1.39-62.78,162.99-46.5-24.23,151.54-418.72Z"/>
        <path d="M1424.44,1044.77h-24.91l-2.02-2.02v-102.32c0-8.41-14.31-12.04-20.24-5.43-.88.98-4,7.39-4,8.12v100.3h-26.93v-133.29h25.58v8.75s2.67.67,2.67.67c6.86-15.82,33.11-15.86,43.11-3.35,1.82,2.28,6.73,12.44,6.73,14.81v113.77Z"/>
        <path d="M1720.64,1044.77h-23.56l-2.03-8.07c-6.73,2.86-8.43,8.13-16.94,9.29-30.66,4.18-36.89-26.09-34.07-50.22,3.02-25.86,26.43-34.31,49.68-33.12-.47-8.5,3.2-35.69-11.17-33.43-10.01,1.58-5.83,12.05-9.71,17.26h-24.91c-1.97-28.21,15.16-41.4,42.39-39.02,12.9,1.13,23.29,7.02,27.32,19.81,1.05,3.34,3,12.85,3,15.85v101.65ZM1693.71,982.84c-10.73,0-21.88,2.37-23.91,14.46-1.57,9.34-1.14,26.42,12.29,25.5,6.01-.41,11.62-8.44,11.62-13.7v-26.25Z"/>
        <path d="M1789.98,1044.77l-4.04-8.05c-18.65,19.29-43.15,9.32-48.54-16.11-7.59-35.79,10.58-59.94,47.88-57.96-1.77-9.31,5.62-33.46-8.76-33.46-9.66,0-9.18,10.04-10.1,17.3h-25.58c-3.04-28.5,16.73-42.04,43.61-38.9,15.84,1.85,26.12,11.44,27.73,27.47,3,29.85-1,66.12-.04,96.98.07,2.41,3.23,12.73-.62,12.73h-21.54ZM1786.61,1006.4c.74-6.32,0-14.88,0-21.54,0-4.85-15.79.33-18.79,2.75-8.08,6.49-8.87,32.93,3.9,35.05,10.01,1.66,13.94-8.1,14.9-16.25Z"/>
        <path d="M1901.05,951.87h-25.58c-.03-7.78,1.96-21.45-8.8-21.62s-11.82,13.12-7.15,20.75c4.03,6.58,22.91,15.59,30.12,22.38,22.75,21.41,19.37,68.41-16.33,72.59-31.47,3.68-48.3-12.79-44.96-44.29h26.93c-.67,9.97.34,24.18,13.83,21.28,6.9-1.48,8.29-10.25,7.43-16.21-2.72-18.91-35.55-25.06-43.45-46.82-7.88-21.72-.06-49.21,25.71-52.33,30.66-3.72,45.59,14.78,42.26,44.28Z"/>
        <path d="M1950.87,877.82v30.29c2.23,4.21,16.3.81,17.51,2.01v22.9s-16.92,1.25-16.92,1.25c-.69.98-.52,2.27-.65,3.39-1.63,13.25-1.82,65.35.39,77.83,1.75,9.88,7.67,7.74,15.84,7.73v19.52c-10.99,6.18-33.61,5.45-39.57-7.55-1.03-2.25-3.51-10.75-3.51-12.65v-89.53h-13.46v-22.89h13.46v-32.31h26.93Z"/>
        <path class="cls-1" d="M608.55,113.09l-151.54,418.72,46.5,24.23,62.78-162.99,40.28,1.39,53.13,134.66,160.09-415.18,39.65-.9,170.53,440.32h76.74v36.35h-61.93l30.97,83.47h-41.06l-31.64-83.47h-59.24v519.69h-39.04v-519.69h-161.56v-36.35h245.04l-12.33-34.11-3.13-2.25-271.06,2.28-22.6,62.4,143.52,371.55c-1.5-.97-2.53,0-3.35,0h-39.72l-58.08-155.99-273.27.62-2.38,11.15c44.57,22.28,83.7,55.25,91.21,107.38,11.33,78.73-34.53,143.67-109.93,164.36-80.21,22.01-167.2-4.32-229.19-56.82-2.19-1.86-13.52-11.6-13.26-13.23l25.98-30.5c39.85,40.19,91.92,68.42,149.48,71.37,75.05,3.85,146.01-37.39,139.38-120.53-3.38-42.35-33.24-66.66-67.98-85.48l-41.05,107.68h-40.39l47.13-123.85c-44.67-16.16-93.21-32.07-132.37-59.5-84.63-59.28-77.95-180.23,11.17-230.68,11.63-6.58,24.29-10.58,36.33-16.22L162.91,113.09h41.06l145.4,402.57c2.3,2.77,35.06.9,41.73,1.35,5.65.38,27.41,5.4,30.37,3.41l147.37-407.33h39.72ZM959.95,481.99l-119.84-319.08-122.5,319.08h242.34ZM603.17,673.18l34.93-92.11-50.42-134.08-3.35-4.04-119.17,319.08h241.67l-47.14-126.55c-2.96-2.29-13.18,36.08-16.81,37.69h-39.72ZM407.95,557.4c-15.12-2.91-30.31-4.95-45.78-4.04l22.9,64.61,22.88-60.57ZM325.74,558.81c-59.97,12.84-94.88,71.81-75.36,131.24,19.73,60.06,110.31,80.41,161.59,102.96l75.51-198.35c-14.4-10.13-29.35-19.98-45.85-26.5l-37.91,104.83-35.27-.03-42.7-114.15Z"/>
        <path class="cls-1" d="M1693.71,982.84v26.25c0,5.27-5.62,13.29-11.62,13.7-13.43.92-13.86-16.16-12.29-25.5,2.03-12.09,13.19-14.46,23.91-14.46Z"/>
        <path class="cls-2" d="M1248.07,984.86c0-3.91-22.45-4.04-24.3,14.74-.81,8.17-1.08,21.31,9.41,23.05,10.82,1.79,13.99-9.12,14.89-17.6.65-6.07,0-13.86,0-20.2Z"/>
        <path class="cls-1" d="M1786.61,1006.4c-.96,8.16-4.89,17.91-14.9,16.25-12.76-2.11-11.98-28.55-3.9-35.05,3.01-2.42,18.79-7.6,18.79-2.75,0,6.66.74,15.23,0,21.54Z"/>
        <polygon points="959.95 481.99 717.61 481.99 840.11 162.91 959.95 481.99"/>
        <path d="M603.17,673.18h39.72c3.64-1.62,13.85-39.98,16.81-37.69l47.14,126.55h-241.67l119.17-319.08,3.35,4.04,50.42,134.08-34.93,92.11Z"/>
        <path d="M325.74,558.81l42.7,114.15,35.27.03,37.91-104.83c16.5,6.52,31.45,16.37,45.85,26.5l-75.51,198.35c-51.27-22.54-141.86-42.89-161.59-102.96-19.52-59.43,15.39-118.39,75.36-131.24Z"/>
        <path d="M407.95,557.4l-22.88,60.57-22.9-64.61c15.47-.91,30.66,1.12,45.78,4.04Z"/>
      </g>
    </g>
  </g>
</svg>