<?xml version="1.0" encoding="UTF-8"?>
<svg id="Calque_1" data-name="Calque 1" xmlns="http://www.w3.org/2000/svg" viewBox="0 0 2250 1800">
  <defs>
    <style>
      .cls-1 {
        fill: #335260;
      }

      .cls-2 {
        fill: #059cdd;
      }

      .cls-3 {
        fill: #fddc05;
      }

      .cls-4 {
        fill: #ab037b;
      }

      .cls-5 {
        fill: #fefefe;
      }
    </style>
  </defs>
  <path class="cls-5" d="M2250,0v1800H0V0h2250ZM1119.63,452.32c68.18,59.96,146.8-51.82,74.85-96.55-65.58-40.75-128.1,49.74-74.85,96.55ZM1312.04,427.96c-3.27-3.6-22.82-11.85-28.52-14.22-11.49-4.79-45.05-21.84-47.48-.35-1.73,15.33,21.27,17.46,32.91,22.39,6.63,2.82,26.07,13.56,30.93,14.16,12.21,1.52,20.7-12.6,12.15-22.01v.02ZM1526.68,402.44c-8.2.48-35.59,2.27-40.98,7.02-7.47,6.59-3.86,20.34,6.42,22.23,8.7,1.61,33.52-3.93,44.56-4.26,11.38-.33,37.97,4.26,45.73-.77,6.44-4.15,6.42-15.73.87-20.22-7.12-5.78-46.01-4.63-56.61-4.02v.02ZM1620.48,417.48c-4.3,3.95-4.6,11.62-1.8,16.61s27.05,12.27,34.27,15.22c8.94,3.64,26.02,14.78,34.62,12.03s10.95-13.9,5.27-20.43c-5.19-5.97-56.91-27.6-64.44-26.88-1.87.18-6.52,2.18-7.92,3.46h0ZM1782.84,441.68c-62.45-30.15-118.8,39.97-78.78,94.19,4.19,5.69,7.92,5.28,11.48,7.59,2.66,1.72,5.3,5.55,9.65,7.63,22.02,10.5,46.02,8.73,64.68-5.13,35.33-26.23,33.23-84.84-7.02-104.28ZM1414.11,439.88c-7.98,2.05-32.68,23.09-36.63,23.41-3.2.27-12.33-11.78-20.5-11.36-8.94.46-14.98,9.11-12.34,17.62.98,3.15,21.38,19.37,25.65,22.39,2.46,1.76,5.19,4.87,8.25,3.99l52.26-37.88c5.39-12.3-3.84-21.49-16.68-18.18h0ZM1068,1194.75v-102.75h-145.5c-19.29-77.85-38.22-156.11-52.04-235.21-22.87-131.09-37-239.16,55.07-347.49l19.45-20.28c-136.25,56.91-272.03,132.72-380.28,233.96-163.25,152.65-258.09,374.73-64.5,550.58,209.1,189.95,615.34,200.4,880.32,164.75,83.3-11.2,165.88-28.48,246.99-50.01l1.56-4.44-.03-682.63c-8.31-97.53-155.61-99.48-162.13,1.48l-.11,523.4c-18.7,123.38-193.53,132.29-224.43,11.79l-.33-527.67c-6.8-107.27-148.68-110.55-162.12-7.48l.12,483.12c-4.3,61.92-86.73,59.66-91.62,2.98-.84-9.7-1.25-32.89-.02-42.12.73-5.48,5.55-9.55,9.86-5.2,6.84,6.9-3.63,48.06,7.56,64.44,16.56,24.23,57.68,15.89,62.16-11.16v-.03ZM1819.92,629.58c9.83,9.99,24.42,1.12,21.72-14.98-1.45-8.65-18.47-46.9-23.87-54.12-9.26-12.39-26.41-5.49-24.65,8.09.8,6.03,12.78,26.01,16.12,33.42,2.58,5.73,7.88,24.77,10.65,27.6h.02ZM1837.05,666.31c-2.77.82-7.41,6.12-7.14,9.36,2.48,22.61-.99,50.21,1.55,72.11,1.66,14.28,22.12,14.73,25.19-.37,2.61-12.87.84-56.01-1.24-70.06-1.4-9.4-9.3-13.71-18.34-11.03h0ZM1835.58,798.29c-5.04,1.11-8.94,6.34-9.73,11.31-.47,23.43-7.19,48.57-7.94,71.62-.59,17.55,15.72,23.2,25.27,8.7l9.06-79.21c-.9-8.66-7.92-14.34-16.65-12.42h-.02ZM1831.05,951.43c-5.48-6.5-19.7-3.91-22.02,4.86l-13.26,78.02c1.94,15.75,21.72,17.52,26.05,2.28.48-22.44,12.95-54.77,12.41-75.89-.06-2.11-1.86-7.7-3.2-9.27h.02ZM1776.52,1191.98c6.36,6.36,17.45,3.72,21.26-3.93l12.8-77.25c2.37-15.8-18.44-20.07-24.88-6.84-1.74,24.21-11.4,52.25-12.69,75.87-.26,4.77,0,8.64,3.54,12.16l-.02-.02ZM1812.57,1317.57c33.85-32.95,17.49-91.71-28.73-102.16-46.22-10.45-87.05,32.64-72.41,78.41,14.1,44.1,68.45,55.59,101.15,23.75h-.02Z"/>
  <path class="cls-1" d="M1068,1194.75c-4.48,27.05-45.6,35.39-62.16,11.16-11.19-16.38-.72-57.54-7.56-64.44-4.3-4.35-9.12-.25-9.86,5.2-1.23,9.23-.82,32.43.02,42.12,4.89,56.67,87.32,58.93,91.62-2.98l-.12-483.12c13.43-103.06,155.32-99.78,162.12,7.48l.33,527.67c30.9,120.48,205.73,111.57,224.43-11.79l.11-523.39c6.52-100.96,153.82-99.03,162.14-1.48l.03,682.64-1.56,4.44c-81.1,21.52-163.68,38.8-246.99,50.01-264.99,35.66-671.23,25.18-880.32-164.75-193.59-175.86-98.75-397.93,64.5-550.57,108.25-101.23,244.04-177.03,380.28-233.96l-19.45,20.28c-92.07,108.31-77.94,216.41-55.07,347.49,13.8,79.12,32.75,157.37,52.04,235.21h145.5v102.75l-.02.03ZM668.61,1101.27c-1.8.32-26.36,14.04-28.02,15.55-4.32,3.91-3.9,10.62,2.23,11.22,3.24.32,30.97-15.99,31.94-19.08,1.72-5.52-.35-8.68-6.13-7.7h-.02ZM558,1176.75c-1.99,14.05,0,37.27,0,52.5,0,2.45,9.81,5.22,11.67-3.33,4.99-23.14-10.46-55.3,16.94-70.07,7.66-4.12,13.57-2.48,19.05-4.95,6.96-3.15,3.51-10.74-4.88-11.04-18.53-.68-40.21,18.84-42.78,36.9v-.02ZM615,1192.5h74.25c10.14,0,3.48-20.71.77-26.27-16.05-32.82-61.62-34.95-80.14-3.61-22.53,38.11,13.24,79.54,54.96,66.96,5.93-1.79,22.23-11.4,17.46-18.89-3.75-5.89-16.48,5.88-21.24,7.61-20.52,7.45-41.12-4.86-46.06-25.82v.02ZM755.25,1221c-10.19,2.02-34.52,0-46.5,0-3.06,0-3.06,10.5,0,10.5h51c1.39,0,8.94-4.64,10.48-6.02,14.31-12.75,8.57-37.66-10.01-42.46-14.07-3.64-39.18,5.62-44.05-12.99-1.59-6.07,5.19-18.03,9.07-18.03h46.5c3.45,0,5.05-12,0-12h-46.5c-.82,0-6.72,3.03-8.14,3.86-14.64,8.46-17.36,27.72-6.15,40.44,15.26,17.28,43.76,4.08,52.06,13.18,7.26,7.95,2.13,21.55-7.77,23.52ZM799.5,1192.5h72.75c.38,0,4.88-2.98,5.39-3.68,2.27-3.02-.98-14.75-2.43-18.78-8.2-22.73-32.76-34.65-55.88-27.46-54.9,17.07-36.64,100.61,25.26,88.26,7.04-1.39,26.34-10.96,20.68-20.11-3.89-6.27-15.05,5.23-18.91,6.89-19.96,8.52-44.52-2.98-46.86-25.11h0ZM967.86,1231.14c2.52,2.62,8.66,1.44,9.89-2.13,1.3-3.81.78-38.46.3-44.82-2.76-36.98-44.22-57.52-74.28-33.64-45.33,36,4.95,108.55,55.8,70.91,2.57-1.89,3.86-5.01,6.39-6.43.34,4.25-1.13,13,1.87,16.12h.03Z"/>
  <path class="cls-3" d="M1711.03,540.9c-53.23-46.83,9.28-137.33,74.85-96.55,71.95,44.73-6.69,156.51-74.85,96.55Z"/>
  <path class="cls-4" d="M1119.63,452.32c-53.23-46.83,9.29-137.33,74.85-96.55,71.96,44.73-6.69,156.51-74.85,96.55Z"/>
  <path class="cls-2" d="M1812.57,1317.57c-32.7,31.84-87.05,20.34-101.15-23.75-14.64-45.77,25.89-88.92,72.41-78.41,46.52,10.51,62.58,69.2,28.73,102.16h.02Z"/>
  <path class="cls-1" d="M1526.68,402.44c10.61-.62,49.49-1.76,56.61,4.02,5.55,4.5,5.58,16.08-.87,20.22-7.78,5.01-34.35.42-45.73.77-11.04.31-35.86,5.87-44.57,4.26-10.27-1.89-13.87-15.64-6.42-22.23,5.39-4.74,32.77-6.54,40.98-7.02v-.02Z"/>
  <path class="cls-1" d="M1414.11,439.88c12.84-3.31,22.07,5.88,16.68,18.18l-52.26,37.87c-3.05.88-5.79-2.23-8.25-3.99-4.26-3.03-24.66-19.24-25.65-22.39-2.66-8.52,3.41-17.16,12.34-17.63,8.18-.42,17.31,11.63,20.5,11.36,3.95-.35,28.65-21.36,36.63-23.41h0Z"/>
  <path class="cls-1" d="M1835.58,798.29c8.73-1.92,15.75,3.77,16.65,12.42l-9.06,79.21c-9.55,14.5-25.84,8.84-25.27-8.7.77-23.05,7.48-48.2,7.94-71.63.81-4.95,4.7-10.18,9.73-11.31h.02Z"/>
  <path class="cls-1" d="M1776.52,1191.98c-3.52-3.52-3.8-7.41-3.54-12.16,1.3-23.62,10.97-51.66,12.69-75.87,6.45-13.21,27.26-8.95,24.88,6.84l-12.8,77.25c-3.81,7.66-14.9,10.29-21.26,3.93l.02.02Z"/>
  <path class="cls-1" d="M1831.05,951.43c1.32,1.57,3.13,7.16,3.2,9.27.54,21.12-11.94,53.45-12.41,75.89-4.34,15.24-24.13,13.45-26.05-2.28l13.26-78.02c2.31-8.77,16.55-11.36,22.02-4.86h-.02Z"/>
  <path class="cls-1" d="M1837.05,666.31c9.05-2.69,16.95,1.62,18.34,11.03,2.09,14.05,3.85,57.2,1.24,70.06-3.06,15.11-23.52,14.65-25.19.37-2.55-21.9.91-49.5-1.55-72.11-.28-3.22,4.37-8.54,7.14-9.36h0Z"/>
  <path class="cls-1" d="M1819.92,629.58c-2.77-2.82-8.07-21.87-10.65-27.6-3.34-7.43-15.33-27.4-16.12-33.42-1.78-13.57,15.39-20.47,24.65-8.09,5.4,7.21,22.41,45.48,23.87,54.12,2.7,16.11-11.9,24.97-21.72,14.98h-.02Z"/>
  <path class="cls-1" d="M1312.04,427.96c8.57,9.4.06,23.52-12.15,22.01-4.86-.6-24.3-11.34-30.93-14.16-11.64-4.95-34.64-7.08-32.91-22.39,2.43-21.49,35.98-4.44,47.48.35,5.7,2.37,25.25,10.63,28.52,14.22v-.02Z"/>
  <path class="cls-1" d="M1620.48,417.48c1.4-1.28,6.06-3.29,7.92-3.46,7.53-.72,59.25,20.91,64.44,26.88,5.69,6.53,2.92,17.82-5.27,20.43-8.59,2.74-25.68-8.38-34.62-12.03-7.23-2.96-31.35-10.04-34.27-15.22s-2.51-12.66,1.8-16.61h0Z"/>
  <path class="cls-5" d="M799.5,1192.5c2.36,22.12,26.89,33.64,46.86,25.11,3.86-1.65,15.03-13.16,18.91-6.89,5.66,9.15-13.65,18.7-20.68,20.11-61.91,12.34-80.16-71.19-25.26-88.26,23.11-7.18,47.67,4.74,55.88,27.46,1.45,4.04,4.7,15.77,2.43,18.78-.51.69-5.02,3.68-5.39,3.68h-72.75,0ZM865.5,1180.5c-4.56-37.53-61.55-38.27-66,0h66Z"/>
  <path class="cls-5" d="M615,1192.5c4.94,20.94,25.54,33.27,46.06,25.82,4.76-1.73,17.49-13.5,21.24-7.61,4.76,7.47-11.55,17.09-17.46,18.89-41.71,12.59-77.47-28.83-54.96-66.96,18.51-31.34,64.08-29.22,80.14,3.61,2.71,5.55,9.38,26.27-.77,26.27h-74.25v-.02ZM682.5,1180.5c-6.91-38.37-59.56-37.68-67.5,0h67.5Z"/>
  <path class="cls-5" d="M967.86,1231.14c-3.02-3.12-1.53-11.88-1.87-16.12-2.54,1.41-3.82,4.53-6.39,6.43-50.86,37.65-101.13-34.91-55.8-70.91,30.06-23.88,71.52-3.33,74.28,33.64.48,6.36,1,41-.3,44.82-1.23,3.59-7.36,4.75-9.89,2.13h-.03ZM925.11,1152.36c-44.18,7.5-29.71,82.2,18.38,66.37,38.27-12.6,25.68-73.86-18.38-66.37Z"/>
  <path class="cls-5" d="M755.25,1221c9.9-1.96,15.03-15.57,7.77-23.52-8.31-9.11-36.81,4.11-52.06-13.18-11.22-12.72-8.49-31.98,6.15-40.44,1.43-.82,7.32-3.86,8.14-3.86h46.5c5.05,0,3.45,12,0,12h-46.5c-3.88,0-10.66,11.95-9.07,18.03,4.86,18.6,29.98,9.34,44.05,12.99,18.57,4.8,24.32,29.71,10,42.46-1.55,1.38-9.09,6.02-10.48,6.02h-51c-3.06,0-3.06-10.5,0-10.5,11.98,0,36.31,2.02,46.5,0Z"/>
  <path class="cls-5" d="M558,1176.75c2.56-18.06,24.24-37.57,42.78-36.9,8.37.3,11.82,7.89,4.88,11.04-5.47,2.48-11.38.82-19.05,4.95-27.39,14.76-11.93,46.92-16.94,70.07-1.85,8.55-11.67,5.77-11.67,3.33,0-15.23-1.99-38.45,0-52.5v.02Z"/>
  <path class="cls-5" d="M668.61,1101.27c5.79-.99,7.86,2.18,6.13,7.7-.96,3.09-28.7,19.39-31.94,19.08-6.13-.6-6.55-7.3-2.23-11.22,1.68-1.52,26.23-15.24,28.02-15.55h.02Z"/>
  <path class="cls-1" d="M865.5,1180.5h-66c4.45-38.27,61.44-37.53,66,0Z"/>
  <path class="cls-1" d="M682.5,1180.5h-67.5c7.94-37.68,60.59-38.37,67.5,0Z"/>
  <path class="cls-1" d="M925.11,1152.36c44.05-7.48,56.64,53.79,18.38,66.37-48.09,15.82-62.55-58.88-18.38-66.37Z"/>
</svg>