<?xml version="1.0" encoding="UTF-8"?>
<svg id="Calque_1" xmlns="http://www.w3.org/2000/svg" version="1.1" viewBox="0 0 787.7 252.8">
  <!-- Generator: Adobe Illustrator 29.6.0, SVG Export Plug-In . SVG Version: 2.1.1 Build 207)  -->
  <defs>
    <style>
      .st0 {
        isolation: isolate;
      }

      .st1 {
        fill: #e7d8c9;
      }
    </style>
  </defs>
  <g id="Calque_11" data-name="Calque_1">
    <path class="st1" d="M8.2,67.9c-16.6,21.6-6.2,44.3,14.7,63.9,0-15.8,1.4-55.2,13.4-86.8-11.4,6.3-21.1,13.9-28.1,22.9"/>
    <path class="st1" d="M200.6,93.9c2.7-9.7,4.6-19.7,5.7-29.6,2.4-23.2-24.4-36.5-59.5-39.8,22.8,18.3,42.5,44.5,53.9,69.4"/>
    <path class="st1" d="M146.8,24.5C129.1,10.3,109.7.8,90.7,0c-28.2-1.1-44.8,19.4-54.4,44.9,31.2-17.1,75.1-23.9,110.5-20.5"/>
    <path class="st1" d="M22.9,131.8c0,4.4,0,7,0,7,0,0,.4,27.5,20.5,43.6,14.5,11.7,54.9,11.6,94.6,2.5v-.2c-16.2,4-80.3-20.1-115.2-52.9"/>
    <path class="st1" d="M200.6,93.9c-12.3,44.6-39.8,84.3-62.2,90.7-.1,0-.3,0-.4,0v.2c21-4.8,41.7-12.1,58.4-21.5,19.5-11,17.9-39.4,4.2-69.5"/>
    <path class="st1" d="M124,87.5l-4.9-2.7s0,0,0,0l4.8-8.7s0,0,0,0l9.2,5.1c2.1,1.1,4.7.6,6-1.3,1.5-2.2.7-5.1-1.5-6.4l-9.4-5.2s0,0,0,0l4.9-8.8s0,0,0,0l-7.7-4.2s0,0,0,0l-4.9,8.8s0,0,0,0l-17-9.4s0,0,0,0l-4.2,7.7s0,0,0,0l17,9.3s0,0,0,0l-4.8,8.7s0,0,0,0l-4.1-2.3-3.7-2-4.1-2.3h0l-20.1,36.5-5.2,9.5-7,12.8s0,0,0,0l7.8,4.3s0,0,0,0l7.1-12.8.9-1.6s0,0,0,0l16.8,9.2s0,0,0,0l-7.9,14.4s0,0,0,0l7.8,4.3s0,0,0,0l8.8-16,3.5-6.4,20.1-36.5s0,0,0,0l-5.8-3.2-2-1.1h0ZM103.9,124.1l-16.8-9.2s0,0,0,0l3.9-7.1s0,0,0,0l16.8,9.2s0,0,0,0l-3.9,7.1s0,0,0,0M112.2,109l-16.8-9.2s0,0,0,0l7.4-13.5s0,0,0,0l16.8,9.2s0,0,0,0l-7.4,13.5s0,0,0,0"/>
    <path class="st1" d="M140.4,80.1h0c-1.2,2.1-.4,4.9,1.8,6.1,2.1,1.2,4.9.4,6.1-1.8,1.2-2.1.4-4.9-1.8-6.1-2.1-1.2-4.9-.4-6.1,1.8"/>
    <rect class="st1" x="237.2" y="187.2" width="548.1" height="5.2"/>
    <path class="st1" d="M247.4,90h-9V25.6h21.6c10.5,0,18.2,7.9,18.2,18.8s-1.5,9.9-4.8,13.7c-4.2,4.7-8.8,6.5-17,6.5h-8.9v25.4h0ZM256.7,56c4.4,0,6.7-.8,8.9-2.8,2.1-2.1,3.5-5.4,3.5-8.4s-1.3-6-3.3-7.9c-2.1-2.1-4.3-2.7-9.3-2.7h-9.2v21.8h9.3Z"/>
    <path class="st1" d="M344.4,57.9c0,18.4-14.5,33.3-32.2,33.3s-32.3-15-32.3-33.3,14.2-33.6,32.3-33.6,32.2,14.8,32.2,33.6M288.9,58.1c0,6.3,2.7,13.1,7,17.7,4.2,4.6,9.8,7,16.3,7s12-2.3,16.2-7c4.3-4.5,7-11.4,7-17.7s-2.1-12.3-6-17c-4.6-5.6-10.1-8.1-17.6-8.1-12.8,0-22.9,11.1-22.9,25.1M308,6.7h8.4l11.7,12.4h-9.6l-6.5-6.7-6.1,6.7h-9.6l11.7-12.4Z"/>
    <polygon class="st1" points="350.4 90 350.4 25.6 359.4 25.6 359.4 81.4 381 81.4 381 90 350.4 90"/>
    <polygon class="st1" points="385.4 90 385.4 25.6 418.9 25.6 418.9 34.2 394.4 34.2 394.4 53.2 418.9 53.2 418.9 61.8 394.4 61.8 394.4 81.4 418.9 81.4 418.9 90 385.4 90"/>
    <path class="st1" d="M502.4,74.2c-5.9,10.8-16.3,17.1-28.2,17.1-17.3,0-31.8-15.3-31.8-33.3s14-33.6,31.8-33.6,22.4,6.2,28.7,17.7h-11c-4.9-6.2-10.5-9.1-17.6-9.1-12.8,0-22.9,11.1-22.9,25s10.6,24.7,22.9,24.7,12.4-2.9,16.9-8.5h11.2,0Z"/>
    <path class="st1" d="M548.9,70.3c0,6.2-1.7,10.4-5.7,14.5-4.2,4.2-9.5,6.5-15.5,6.5-11.4,0-20.5-9.3-20.5-21V25.6h9v43.4c0,4.7.9,7.5,3.3,10.1,2.2,2.4,5,3.6,8.6,3.6s6.3-1.3,8.6-3.7c2.4-2.6,3.1-4.8,3.1-10.1V25.6h9v44.7h0Z"/>
    <polygon class="st1" points="557.4 90 557.4 25.6 566.4 25.6 566.4 81.4 588 81.4 588 90 557.4 90"/>
    <polygon class="st1" points="594.9 90 594.9 34.2 582.9 34.2 582.9 25.6 615.8 25.6 615.8 34.2 604 34.2 604 90 594.9 90"/>
    <path class="st1" d="M660.6,70.3c0,6.2-1.7,10.4-5.7,14.5-4.2,4.2-9.5,6.5-15.5,6.5-11.4,0-20.5-9.3-20.5-21V25.6h9v43.4c0,4.7.9,7.5,3.3,10.1,2.2,2.4,5,3.6,8.6,3.6s6.3-1.3,8.6-3.7c2.4-2.6,3.1-4.8,3.1-10.1V25.6h9v44.7h0Z"/>
    <path class="st1" d="M698.7,90l-20.7-29.9v29.9h-9V25.6h19.2c7.6,0,12.8,1.6,16.5,5.3,3.6,3.7,5.7,9.2,5.7,15.6s-3,12.8-7.8,16c-2.8,1.8-5.1,2.7-10,3.4l17.4,24h-11.3,0ZM684.3,58.8c5.5,0,8.6-.7,11.6-2.5,3.5-2.1,5.5-5.7,5.5-10.1,0-7.2-5.5-12-13.8-12h-9.6v24.6h6.2Z"/>
    <polygon class="st1" points="716.8 90 716.8 25.6 750.3 25.6 750.3 34.2 725.8 34.2 725.8 53.2 750.3 53.2 750.3 61.8 725.8 61.8 725.8 81.4 750.3 81.4 750.3 90 716.8 90"/>
    <polygon class="st1" points="757.1 90 757.1 25.6 766.1 25.6 766.1 81.4 787.7 81.4 787.7 90 757.1 90"/>
    <path class="st1" d="M301.5,115.9c-.4-5.6-3.7-9.4-8.4-9.4s-8.5,4.1-8.5,8.9,1.2,5.2,3.4,6.7c1.3,1,2.8,1.5,6.9,2.7,6.9,2,9.4,3.4,12.1,6.6,3.2,3.5,4.8,7.9,4.8,12.9,0,11.5-8.3,20.6-18.9,20.6s-11.9-2.7-15.7-7.7c-2.8-3.8-3.8-7-3.9-12.6h8.9c.4,3.5.7,5,1.9,6.9,1.7,2.9,5.1,4.8,8.6,4.8,5.7,0,10-4.6,10-10.7s-1.7-6.6-4.9-8.3c-1.4-.8-1.7-.9-4.3-1.7-1-.3-.5-.1-1.7-.5l-.8-.4-.8-.3c-6.8-2.3-8-3-10.3-5.6-2.7-3-4.2-7.2-4.2-11.8,0-11,7.5-19,18-19s11.2,2.9,14.5,8.5c1.7,2.8,2.3,5.4,2.5,9.5h-9.1Z"/>
    <path class="st1" d="M359.6,163.6l-6.9-19h-22.3l-6.9,19h-9.6l23.5-64.4h8.2l23.5,64.4h-9.6,0ZM341.6,111.3l-8,24.6h15.9l-7.9-24.6Z"/>
    <rect class="st1" x="375.4" y="99.2" width="9" height="64.4"/>
    <polygon class="st1" points="436.9 163.6 405.9 113.8 405.9 163.6 396.9 163.6 396.9 99.2 406.7 99.2 437.1 148.2 437.1 99.2 446.2 99.2 446.2 163.6 436.9 163.6"/>
    <polygon class="st1" points="465.3 163.6 465.3 107.8 453.3 107.8 453.3 99.2 486.2 99.2 486.2 107.8 474.3 107.8 474.3 163.6 465.3 163.6"/>
    <rect class="st1" x="488" y="134.3" width="23.4" height="9"/>
    <polygon class="st1" points="535.7 163.6 510.6 99.2 520.3 99.2 538.4 147.5 556.4 99.2 566 99.2 541.1 163.6 535.7 163.6"/>
    <path class="st1" d="M606.8,163.6l-6.9-19h-22.3l-6.9,19h-9.6l23.5-64.4h8.2l23.5,64.4h-9.6,0ZM588.9,111.3l-8,24.6h15.9l-7.9-24.6h0Z"/>
    <path class="st1" d="M662,163.6l-6.9-19h-22.3l-6.9,19h-9.6l23.5-64.4h8.2l23.5,64.4h-9.6,0ZM644.1,111.3l-8,24.6h15.9l-7.9-24.6h0Z"/>
    <path class="st1" d="M700.9,115.9c-.4-5.6-3.7-9.4-8.4-9.4s-8.5,4.1-8.5,8.9,1.2,5.2,3.3,6.7c1.3,1,2.8,1.5,6.9,2.7,6.9,2,9.4,3.4,12.1,6.6,3.2,3.5,4.8,7.9,4.8,12.9,0,11.5-8.3,20.6-18.9,20.6s-11.9-2.7-15.7-7.7c-2.8-3.8-3.8-7-3.9-12.6h8.9c.4,3.5.7,5,1.8,6.9,1.7,2.9,5.1,4.8,8.7,4.8,5.7,0,10-4.6,10-10.7s-1.7-6.6-4.9-8.3c-1.4-.8-1.7-.9-4.3-1.7-1-.3-.5-.1-1.7-.5l-.8-.4-.8-.3c-6.8-2.3-8-3-10.3-5.6-2.7-3-4.2-7.2-4.2-11.8,0-11,7.5-19,18-19s11.2,2.9,14.5,8.5c1.7,2.8,2.3,5.4,2.5,9.5h-9.1,0Z"/>
    <polygon class="st1" points="727.3 163.6 727.3 107.8 715.2 107.8 715.2 99.2 748.1 99.2 748.1 107.8 736.3 107.8 736.3 163.6 727.3 163.6"/>
  </g>
  <g id="Calque_2">
    <g class="st0">
      <g class="st0">
        <path class="st1" d="M232.5,252.9v-32.6h16.5c3.3,0,5.8.3,7.6.9,1.7.6,3.1,1.6,4.1,3.1,1,1.5,1.5,3.1,1.5,4.9s-.9,4.3-2.6,5.9c-1.7,1.6-4.3,2.6-7.9,3,1.3.5,2.3,1.1,3,1.6,1.4,1.2,2.8,2.6,4.1,4.3l6.5,8.9h-6.2l-4.9-6.8c-1.4-2-2.6-3.5-3.6-4.5-.9-1-1.8-1.8-2.5-2.2-.7-.4-1.5-.7-2.2-.9-.6-.1-1.5-.2-2.7-.2h-5.7v14.5h-4.9ZM237.5,234.7h10.6c2.2,0,4-.2,5.3-.6,1.3-.4,2.2-1.1,2.9-2,.7-.9,1-1.9,1-2.9,0-1.5-.6-2.8-1.9-3.8-1.3-1-3.3-1.5-6-1.5h-11.8v10.8Z"/>
        <path class="st1" d="M268.5,237c0-5.4,1.7-9.7,5-12.7s7.6-4.6,12.8-4.6,6.5.7,9.3,2.2,4.9,3.4,6.3,6c1.4,2.6,2.2,5.5,2.2,8.8s-.8,6.3-2.3,8.9c-1.5,2.6-3.7,4.6-6.5,5.9-2.8,1.3-5.8,2-9,2s-6.6-.7-9.4-2.2-4.8-3.5-6.3-6.1-2.1-5.3-2.1-8.1ZM273.6,237.1c0,3.9,1.2,7,3.6,9.3,2.4,2.3,5.4,3.4,9.1,3.4s6.8-1.1,9.1-3.4c2.4-2.3,3.6-5.5,3.6-9.7s-.5-5-1.5-7c-1-2-2.5-3.5-4.5-4.6-2-1.1-4.2-1.6-6.6-1.6-3.5,0-6.5,1-9,3.1s-3.8,5.6-3.8,10.5Z"/>
        <path class="st1" d="M310.3,252.9v-32.6h5l19.5,25.6v-25.6h4.7v32.6h-5l-19.5-25.6v25.6h-4.7Z"/>
        <path class="st1" d="M358.5,252.9l-14.4-32.6h5.3l9.7,23.7c.8,1.9,1.4,3.7,2,5.3.6-1.8,1.2-3.6,2-5.3l10-23.7h5l-14.6,32.6h-5Z"/>
        <path class="st1" d="M383.4,252.9v-32.6h4.9v32.6h-4.9Z"/>
        <path class="st1" d="M396.8,252.9v-32.6h4.9v28.8h18.3v3.8h-23.2Z"/>
        <path class="st1" d="M425.6,252.9v-32.6h4.9v28.8h18.3v3.8h-23.2Z"/>
        <path class="st1" d="M454.8,252.9v-32.6h26.9v3.8h-22v10h20.6v3.8h-20.6v11.1h22.8v3.8h-27.7Z"/>
        <path class="st1" d="M501.4,243.1v-4h14v4h-14Z"/>
        <path class="st1" d="M546.2,252.9l-14.4-32.6h5.3l9.7,23.7c.8,1.9,1.4,3.7,2,5.3.6-1.8,1.2-3.6,2-5.3l10-23.7h5l-14.6,32.6h-5Z"/>
        <path class="st1" d="M570.3,252.9v-32.6h26.9v3.8h-22v10h20.6v3.8h-20.6v11.1h22.8v3.8h-27.7Z"/>
        <path class="st1" d="M604.9,252.9v-32.6h16.5c3.3,0,5.8.3,7.6.9,1.7.6,3.1,1.6,4.1,3.1s1.5,3.1,1.5,4.9-.9,4.3-2.6,5.9c-1.7,1.6-4.3,2.6-7.9,3,1.3.5,2.3,1.1,3,1.6,1.4,1.2,2.8,2.6,4.1,4.3l6.5,8.9h-6.2l-4.9-6.8c-1.4-2-2.6-3.5-3.6-4.5-.9-1-1.8-1.8-2.5-2.2s-1.5-.7-2.2-.9c-.6-.1-1.5-.2-2.7-.2h-5.7v14.5h-4.9ZM609.8,234.7h10.6c2.2,0,4-.2,5.3-.6,1.3-.4,2.2-1.1,2.9-2,.7-.9,1-1.9,1-2.9,0-1.5-.6-2.8-1.9-3.8-1.3-1-3.3-1.5-6-1.5h-11.8v10.8Z"/>
        <path class="st1" d="M642.1,252.9v-32.6h4.9v28.8h18.3v3.8h-23.2Z"/>
        <path class="st1" d="M667.1,252.9l14.3-32.6h5.3l15.2,32.6h-5.6l-4.3-9.9h-15.5l-4.1,9.9h-5.2ZM677.9,239.5h12.6l-3.9-9c-1.2-2.7-2.1-5-2.6-6.8-.5,2.1-1.1,4.2-2,6.2l-4.1,9.6Z"/>
        <path class="st1" d="M706.7,252.9v-32.6h4.9v32.6h-4.9Z"/>
        <path class="st1" d="M720.2,252.9v-32.6h5l19.5,25.6v-25.6h4.7v32.6h-5l-19.5-25.6v25.6h-4.7Z"/>
        <path class="st1" d="M757.9,252.9v-32.6h26.9v3.8h-22v10h20.6v3.8h-20.6v11.1h22.8v3.8h-27.7Z"/>
      </g>
    </g>
  </g>
</svg>