<?xml version="1.0" encoding="UTF-8"?>
<svg id="Calque_1" xmlns="http://www.w3.org/2000/svg" version="1.1" viewBox="0 0 939.9 1241.8">
  <!-- Generator: Adobe Illustrator 29.6.0, SVG Export Plug-In . SVG Version: 2.1.1 Build 207)  -->
  <defs>
    <style>
      .st0 {
        fill: #e7d8c9;
      }
    </style>
  </defs>
  <path class="st0" d="M39.7,846.3h0s0,0,0,0c0,.9,227.1-67.9,408.8-68.1,188.6,0,453.5-63.6,486.8-80.8-.2-232.9-.3-464.4-.5-697.4-53.3,17.9-286.3,79.6-492.2,81.8-159,1.7-334.1,46.9-402.8,67.6.2,178.3-.2,658.5,0,696.9ZM516.9,732.4c-3.1,5.2-2.6,1.4-2.4-.5,1.1-14.1,2.1-19.2-1.6-36.2-4.4-20-6.3-52.7-5.1-59.4,0,0,0,0,0,0h0s0,0,0,0c0,0,0,0,0,0,8,10.2,26.3,11.1,33.6,13.5-6.4,12.7-12.2,62.4-24.5,82.6ZM576.7,699.1c-.7.2-1.4.2-2.1.5h0s0,0,0,0c-2.2-8.2-3.1-34.1-2.6-41.4,4.2,1.7,12,4.7,17.1,7.7-4.2,7.3-9.9,25.8-12.4,33.3ZM733,710.1c-10.1,2.1-17.8-9.4-13.2-20.4h0s0,0,0,0c2.2-5.2,9-7.1,15.3-2.6-3.1,7.5-4.4,15.3-2.1,23ZM822.9,674.7h0c-3.1-5.9-5.4-8.2-9.9-9.9.3-10.1,6.5-15.2,10.6-12.4,8.4,5.6,1.2,24.2-.7,22.3ZM833.9,624.5c-6.3-4.3-6.6-8.9-9.2-8.4-2.6.5-5.7,4.4-12.2,11.3-11.5,2.5-23-.2-32.6.7-2.1.3-3.5,6.8,0,7.1,14.1,1.6,21.6,1.4,31.9,1.1,1.9,2.2,2.8,5.6,3.7,8-9.9,5.6-7.3,14.4-14.6,24.2-7.7,9.9-19.9-11.2-25.6-16.5h.1s0,0,0,0c-5.7-5.4-12.4-8.5-24.9-5.7-10.3,6.5-13.6,11-12.2,17.6,1.1,4.7,8.4,12.5,3.3,15.7-4.2,2.5-4.7-2.2-9.6-3.7-8.4-2.2-12,1.4-19.7,7.1-2.2-7.7,1.6-10.6,8.7-11.2.8-.9,1.7-1.7,2.4-3.1-1.7-1.2-2.8-1.2-4.9-.9.5-5.6,1.4-9.8,3.3-14.4,1.6-4.2-5.2-5.7-7.5-2.6-8.4,12.5-16-2.4-18.6,5.9-1.2,3.8-.3,10.6-1.4,16.5-.7,4-3.5,9.8-6.8,12.2.5-8.2-1.4-11.8.5-24.9,1.1-8.2,6.1-16,6.5-25.1.2-6.3-7.5-5.6-8.7.3-1.9,8.7-6.8,16.2-9.9,24.5-7.1,6.3-11.8,19.7-16.7,30.5.5-6.3,1.6-18.3,7.5-30.1,7.7-15.7,7-32.2-2.5-31.7-.3,4.4-.3,10.1-3.7,15.7-1.9,3.3-15.8,18-22,23,.5-20.4,10.3-39.2,8-57.7-1.2-10.6-3.8-18.8-10.8-22-6.5-3-5.4,2.2-8.4,10.6-1.4,3.5-3,7.8-6.1,12.4-4.5,6.8-8.4,13.6-14.3,18.5-4.5-7.5-12.7-18.8-19-27.3,3.8-13.6,7-27.7,4.7-39.4-1.2-5.4-5-5.9-7-2.6-6.1,10.1-8.7,15.7-16.5,23.9-8.7-10.8-12.5-22.5-10.3-32.7,2.6-11.8,12.9-24.9,31.2-26.7,18.1-1.7,25.8,18.1,38.8,31.2,1.6,1.6,24.2,19.5,23.5,4.9-.3-7.7-.9-55.6,1.6-66.4,3.5,4.2,8.2,8,11.8,11.3,1.7,18,1,43.2,5.9,65,1.9,8.5,8.9,3,8-2.6-.7-4-.3-23.9,3-30.7,3,13.1,7.8,22.6,12.2,25.3,5.7,3.5,15,.3,30.7,3.3,9.8,1.9,15.9,13.6,23.9,21.4,4.9,5,14.5,9.9,23,9.6,6.6-.3,12.7-3.8,17.1-12.4,2.5-5,5.9-23.3,7.5-20.7,3.1,5.7,6.8,8.7,17.2,11,6.6,1.6-6.8,11-8,23.9-4.7,1.9-11.7,6.3-16.4,6.8-4.5.7-7-2.4-8,.3-1.9,4.9,2.6,6.8,6.6,6.8,8.9.2,24-9.4,31-12.9,4.9-2.6,15-10.1,14.8-4.7-.2,10.4,2.1,12.9,7.1,21.6,2.2,3.8-5,9.6-7.5,7.8ZM835.7,543.4c-12,6.1-14.3,12.7-20.4,22.6-4.9,1.2-11.8-2.6-10.3-8.9,2.1-8.5,20.5-18,30.7-13.8ZM813,384.7h0c2.8-5.2,2.5-10.6,5.7-15.7,4.7,6.6,6.6,9,17.1,9-4,9.4-14.5,16.2-22.8,6.6ZM874,601.3c-13.4-1.1-16.9.7-28.1,5h0c-4.9-5.1-3.7-9.6.2-12.7,11.5-9.9,33.8.3,27.9,7.7ZM890.2,300.1s0,0,0,0h0s0,0,0,0c-6.3-4.8-16.4-4.8-24.9-2,.2-4.7.2-11.7.7-15.2,17.9-4.9,23.3,8.2,24.2,17.2ZM868.8,223.3c-12.7,2.6-13.6,10.6-20.5,16.6-1.6-1.6-7.7-3.7-11.5-5.1,8.7-15.3,22.3-19.7,32-11.5ZM778.4,237.6h0c.3-15.3,5.4-31,21.1-29.4-5.7,6.1-10.3,13.4-9.9,23.3.2,3-6.8,5.7-11.1,6.1h0ZM762.9,320.3c6.8-6.3,12-14.5,11-28.2-.8-12-10.3-27.8-3.8-42.2,12.2-2.2,23.7-9.6,22.3-6.6-1.2,3-3,9.4-1.2,17.1,1.1,4.2,4.9,6.8,5.7,9.8.8,2.8-2.4,5.4-4.7,11.3-2.6,6.8.7,11.3,6.8,6.6,13.2-9.9,15.8-27.5,20.2-40.8,4.2-12.7,10.1-4,15.7-.8,5.7,3.3,14.1,2.2,13.2,6.8-1.1,5.4-9.9,9.9-16.5,14.8-11,8-20.7,23.5-12.2,29.2,7.3,5,14.1-2.6,19.7-8.2,5.4-5.7,10.6-11.3,18-8.9,1.2,7,1.1,15.2.5,24-2.6,3.3-18.3,1.9-20.4,2.2-14.8,2.1-25.3,7-29.6,14.5-4.9,8.5-1.9,21.4,5.7,35.9-.8,6.1-4.9,11.7-6.8,18-1.6,5.6-.9,14.3-6.3,16.9-11.7-15.2-5-29.8-9.6-46.3-1.4-5-3.7-4.7-6.3-2.1-4.2,4.4,2.1,15.5-.3,23.7-3.5,10.4-6.1,9.9-8,18.6-2.8,12.2-1.4,42-9.2,54.5-.7-7-5.6-32.2-5.9-37.1-.3-4.2,3.7-23.2,10.6-37.6,2.4-4.9-5-9.9-7.8-5.2-5.2,8.4-7.7,12-9.4,21.8-8,19-14.1,37.1-18.3,55.4-4.9,21.3-12.6,41.1-24.4,62.2-5.6-8.9-2.1-42,.3-50.5,1.2-4.4,5.6-17.6,7-23,1.1-5-6.5-7.5-8.9-2.2-5.2,11.8-6.8,22.5-8.2,33.1-1.2,9.2-1.7,18.6-5.7,28.6-2.5,6.6-11.7,25.8-19.5,42.5-.5-31,1.4-57.1,11.5-88.1-.7-5.4-5.7-5-10.6-2.6-14.5,7.7-27.3,32-30,43.7-5,21.8-5,52.6-4.7,74.9-6.5-5.4-12.4-8.4-23.3-22.3-13.8-17.6-27.8-24.5-49.6-9.2-14.8,10.4-20.2,22.6-20.2,34.3.2,11.8,5.7,23,13.2,31.4,14.8,16.7,15,14.8,21.1,22.6,6.3,7.8,13.8,17.6,19.9,29.8,4.4,8.2,7.5,16.7,8.2,23.9-.7.2-15.3-7-36-15.5-30.1-12.4-58.5-10.6-67.8-26.1h0c0-.1,0-.1,0-.1-7.3-12.4-3.3-29.1-3.3-58.3.2-12.7-.2-52.6-.7-68.8,25.3,22.6,52.9,19.5,83.2-1.2,16.9-11.5,35.5-27.3,40.6-30.8,12.7-8.4,6.3-13.8-4.4-9.9-6.3,2.5-13.1,3-16,3.1-15.5,1.1-29.8-5.4-40.4-15.3-10.6-9.8-17.6-23.9-18.6-39.7,7.1,14.1,23.2,19.5,39,21.6,10.8,1.6,22.5,2.4,45.6-11,4.9-3,9.2-7.3,13.9-10.8,13.2-.9,20.5-5.7,31.3-13.1,22.1-14.6,43.7-40.2,60.3-54,9.4-8,18.3-10.4,24.2-16ZM644.4,252.2h0c-28.4,3.2-44.1-4.9-69.2-1.2,11.8-13.9,48.2-15.2,66-16.7,19.7-1.9,40.1-6.8,63.7-19.1-7.5,14.1-32,34.1-60.6,37.1ZM612.2,275h0c-1.4-.5-4.7-1.1-6.1-1.4-1.4-5.2,2.5-8.7,6.3-9.9,1.6,4.5,1.7,6.8-.2,11.3ZM627,199.1h6.1c0,1.1-1,5.9-4.2,8.4h0c-1.4-3-1.9-4.7-1.9-8.4ZM480.2,179.7c8.2-1.7,14.3-9.8,17.2-15.2.7,4.2.3,9.9,6.5,8,2.6-.9,1.9-5.6,1.6-9.1-.8-5.9-3.7-12.4-4.7-15.3-1.4-3.5-5.9,4.5-10.3,5.4-4.7-4.4-2.1-10.6.3-15.3,5.6-10.8,9.9-9.8,15.5-5.2,4.4,3.5,8.4,9.8,8.5,17.4,0,4.7,7.8-.7,8.5-3.8,4.4-16.2-9.9-25.9-21.1-27.9-.8-3.8-1.6-4-1.9-9.2,2.8,2.6,7.1,4.5,10.8,5.1,7,.9,20.2,0,33.5.7,15.2.7,30.7.2,36.4,4.7,4.2,3.5,7.1,14.1,13.2,16.9,5.4,2.6,9,1.6,13.4,1.6s9,.2,13.2,1.9c4,1.6,7.5,5.6,12.9,10.8,5.7,5.7,13.8,3.3,21.8,7.5,3.3,1.7.3,7.5-3.5,7.8-3.1.5-7.5-1.1-11-1.1-3.7-.2-6.8,3-3.7,5.9,2.1,2.1,5.9,3.3,7.3,6.1,1.2,2.2-.3,7.3-2.6,11.5-16,1.4-30,1.4-42.3,5.4-13.9,4.4-29.6,12.4-35.7,35.9-4.5,18,3.5,30,11.7,38,7.1,7.1,20.9,13.4,34.7,17.1.9,6.5-5.7,13.8-10.6,17.4-6.6-6.1-15.8-8.9-28.7-9.9-9.9-.8-16-6.8-19.3-21.6-1.1-4.5-7.5-6.8-8.4-2.1-.8,3.7-1.4,9.4-1.6,14.6-.5,25.3,5.9,44.6,18,56.4,12,11.7,30.8,18.6,55.2,11.8,25.9-7.5,57.1-29.6,71.4-48.4-4.9,21.1-4.4,21.4-10.4,39.2-8.2,23.4-19.9,40.6-34.5,53.7-11.5,10.1-24.2,18.3-41.4,20-26.3,3-47-9.2-46.2-31.7.2-3.1-6.8-12.5-10.3-4.7-3.7,8.2-5,11.3-5,20.2.2,16.5,6.1,29.4,13.4,39.5,19.5,26.5,35.4,27.3,56.4,27.8-18.8,15.5-37.8,33.1-56.4,35h0c0,0,0,.1,0,.1-42.2,4.4-52.8-29.4-60.1-53.5-4.9-15.8-7.5-36.2-5.4-59.2,1.7-17.8,7-35.5,11.7-51.8,1.4-4.7-4.5-9-8-5-2.8,3.3-16.2,16.9-32.6,28.2-14.6,9.9-31.5,18.1-45.6,15.8,10.6-9.2,20.2-19.7,28.7-31,12.4-16.4,22.5-34.6,30.8-53.5,7.8-17.8,14.1-36.2,19.2-54.5.5-12.9-6.8-7.6-9-1.4-4.2,12.7-10.1,22.3-14.1,27.2-13.4,15.5-31.7,26.7-50,31,8.2-5.4,19.3-26.3,30.3-46.3,12.9-23.5,22.3-68.4,32.4-69ZM249.1,342c0-93.9,71.1-170.3,158.1-170.3s37.8,3.8,55,10.7c-3.1,7.2-5.7,15.4-7.9,20.9-6.6,16.7-12.9,33.6-20.7,49.5-7.1,14.1-14.8,27.2-25.9,38-7,6.8-13.4,9.1-.9,14.8,7.8,3.3,21.1-1.6,29.1-4.7,17.6-6.8,28.7-20.6,34.5-25.3-7.3,17.8-18.1,38.1-30.8,56.2-2.9,4.1-5.9,8.1-9,11.9h-181.4v-1.7ZM150.9,566.9h20l2.8-19.2c55-23.2,78.4-103.3,81.7-155.9l-33.6.3,19.5-24.2h165.7c-.6.5-1.2,1-1.8,1.4-25.8,13.2-8.9,18,10.8,18.3,17.9.1,37.4-9.3,52.1-19.7h13.9c-3.3,12.7-6,26-6,38.7,0,19.2,3.5,39.9,7.1,52.6,3.8,12.7,9.2,22.7,12.7,28.2,2.1,34,0,48.6.2,74.4,0,7.3-.2,14.2-.5,20.6H140.9l9.9-15.7ZM169.5,641.1v-34.8h325.5c.2,8.4,1.3,15.7,4.4,22,.3,11.3.9,23.3,2.1,35.9,2.3,22.3,7,44.1,7.5,57.3.3,6.4-.8,12.1-1.7,16.6-52.4,2.1-130,3.9-194.9,11.4-102.1,11.7-180.1,39.2-252,56.2,0-55.6,47.7-157.5,109.2-164.6Z"/>
  <path class="st0" d="M192.6,664c-66,20.9-93,71.4-104,121h0s23-6.1,23-6.1c17.9-54,35.9-71.7,85.5-91.6,17.9-7.1,17.1-12.7,17.2-30.3l.2-35-21.8.2c.2,9.4.2,31.2-.2,41.8Z"/>
  <path class="st0" d="M200.7,565.9h29.4c45.3-33.1,69.8-115.1,69.5-173.5l-22.1.2c-1.2,59.7-23,126.6-76.8,173.3Z"/>
  <path class="st0" d="M406.7,218.4h0c9.8-.3,19.3.8,25.4,2.8l7.8-20.5c-5.7-1.9-17.1-4.9-32.7-4.9-69,0-125.8,53.7-131.3,121.6h23.7c5.6-57.1,46.7-97.4,107.1-98.9h0Z"/>
  <path class="st0" d="M890.6,1130c-21.6-12.7-33.1-18.6-33.1-33.4s8.9-20.6,23.3-20.6,29.2,10.3,41.1,31.3l7.3-1.2-1.7-42.5-6.1-.8c-1.2,2.8-2.8,3.7-5.2,3.7-6.3,0-16.5-10.4-38.1-10.4s-48.8,19-48.8,45.6,16,36.9,45,54c22.8,13.9,37.3,21.4,37.3,39.2s-11.7,26.7-31.5,26.7-32-9.2-45.1-28.4l-8,2.2,10.8,43,5,1.2h0s0,0,0,0c3-3.3,5.2-5.1,7.5-5.1,4,0,16.7,7.3,36.9,7.3,30.8,0,52.8-22.1,52.8-48.9s-18.5-44.8-49.3-62.9Z"/>
  <path class="st0" d="M479.7,1203c-15.8-28.2-32.7-46.7-48.2-55.6,28.1-5.9,43-21.3,43-43.6s-8.9-31.9-25.8-39.4c-11.3-5.1-26.7-5.7-46.5-5.7h-47.9,0v6.5c7.5,2.6,8.9,6.6,8.9,14.6v137.9c0,8-1.4,12.2-8.9,14.6v6.3h47.7v-6.3c-7.5-2.4-8.7-6.6-8.7-14.6v-137.9h14.8c24,0,37.1,5.8,37.1,25.9s-14.6,28.9-43,31v17.4c9.9,5.4,23.5,18.1,37.4,38.5,12.2,17.4,18,29.4,18,34s-1.1,3.8-2.6,5.7v6.3h46.3v-6.3c-9.6-3.7-13.2-14.6-21.6-29.4Z"/>
  <path class="st0" d="M148.9,1059.5c-7.1,0-11.2,4.7-11.2,13.1s.3,2.8.5,4.5l8.5,56.2h4.4s0,0,0,0l8.2-56.2c.3-1.7.5-3.5.5-5.1,0-8-4.2-12.5-11-12.5Z"/>
  <path class="st0" d="M196.9,1027.8v5.9h39.9v-5.9c-7.3-2.6-8-6.3-8-13.9h0v-78.4l-7.1-3-24.8,16.2v5.9c7.5,1.1,8.2,3,8.2,8.4v50.9c0,7.7-.9,11.3-8.2,13.9Z"/>
  <polygon class="st0" points="227.5 873.3 206.2 882.4 206.2 906.4 227.5 897.5 227.5 873.3"/>
  <path class="st0" d="M340.7,1013.9h0v-149.8h-6.5l-25.8,16v5.9c7.3,0,8.7,3.1,8.7,11.2v116.7c0,7.7-.9,11.3-8.2,13.9v5.9h39.9v-5.9c-7.3-2.6-8.2-6.3-8.2-13.9Z"/>
  <path class="st0" d="M200.8,870.2v-6.1h-38.7v6.1c3.8,1.1,5.7,3.1,5.7,5.9s-.5,5.2-1.4,7.3l-46.5,109.7-46.9-109.9c-.9-1.9-1.4-4.7-1.4-6.8,0-3.3,1.9-5,5.9-6.3v-6.1h-44.8v6.1c5.2,3.8,7.7,8,9.8,12.7l66.7,152.4h0s0,0,0,0h17.1l64.4-150c2.6-6.1,5.9-11.2,9.9-15.2Z"/>
  <path class="st0" d="M252.2,1027.8v5.9h39.9v-5.9c-7.3-2.6-8.2-6.3-8.2-13.9v-149.8h-6.5l-25.8,16v5.9c7.3,0,8.7,3.1,8.7,11.2v116.7c0,7.7-.8,11.3-8.2,13.9Z"/>
  <path class="st0" d="M542.4,187.6c12,.2,19.8,4,29.6,1.9h0c6.1-1.2,8.7-5,9.2-8.1,3.7-4.1,13.2-10.9,16.6-13.6,0,0,0,0,0,0,6.3-1.1,7.8-7.8,6.1-8.2-16.4-3.7-26-7.8-34.8-5.9-5.9,1.2-9.6,4-16.9,13.9-2.4,3.3-8.4,11.3-10.3,12.9-2.1,1.7-3.3,7.1.5,7.1Z"/>
  <path class="st0" d="M572,189.5h0s0,0,0,0h0Z"/>
  <path class="st0" d="M398.2,402.5c-40.9,0-74.4,33.3-74.4,74.4s33.3,74.5,74.4,74.5,74.4-33.6,74.4-74.5-33.3-74.4-74.4-74.4ZM398.2,526.7c-27.3,0-49.6-22.3-49.6-49.8s22.3-49.6,49.6-49.6,49.8,22.3,49.8,49.6-22.5,49.8-49.8,49.8Z"/>
  <path class="st0" d="M111,1206.7v-147.9h-6.8l-27.7,16.9v6.3c7.8,0,9.4,3.3,9.4,11.8h0s0,46,0,46c-9.9-4.7-18.8-7.1-28.7-7.1-32.6,0-57.1,25.1-57.1,56.2s23.5,52.8,52.4,52.8,22.3-4.2,33.5-12.2v12.4h6.8l25.3-17.1v-6.3c-5.9-1.1-7-4-7-11.8ZM85.9,1213.4c-8.4,6.4-16.4,9.8-25.1,9.8-19.5,0-34.3-16.9-34.3-40.2s12.4-34.7,31.2-34.7,20.4,4.9,28.2,14.6v50.5Z"/>
  <path class="st0" d="M331.4,1209.1l-66.4-150.3h-16.5l-68.3,150.1c-5.6,12-9.6,20.4-14.6,23.5v6.3h40.9v-6.3c-4-1.7-5.9-4.5-5.9-8.2s.7-6.3,2.8-11.2l10.8-25.3h0s77.3,0,77.3,0l10.4,25.3c2.1,4.9,2.8,8.5,2.8,11.2s-2.2,6.4-6.3,8.2v6.3h47.7v-6.3c-6.1-2.6-9.2-10.8-14.8-23.3ZM224,1165.7l29.6-67.2,28.4,67.2h-58Z"/>
  <path class="st0" d="M809.2,1209.1l-66.4-150.3h-16.5l-68.3,150.1c-3.8,8.2-6.9,14.7-10,19-5.2-5.4-8.8-14.1-14.9-24.9-16-28.2-32.9-46.7-48.4-55.6,28.1-5.9,43.2-21.3,43.2-43.6s-9-31.9-25.9-39.4c-11.3-5.1-26.7-5.7-46.5-5.7h-47.9,0v6.5c7.5,2.6,8.9,6.6,8.9,14.6v137.9c0,8-1.4,12.2-8.9,14.6v6.3h47.7v-6.3c-7.5-2.4-8.7-6.6-8.7-14.6v-137.9h14.8c24,0,37.1,5.8,37.1,25.9s-14.6,28.9-43,31v17.4c9.9,5.4,23.5,18.1,37.4,38.5,12.2,17.4,18,29.4,18,34s-1.1,3.8-2.6,5.7v6.3h35.2s40.9,0,40.9,0v-6.3c-4-1.7-5.9-4.5-5.9-8.2s.7-6.3,2.6-11.2l10.8-25.2h0s0,0,0,0h0s0,0,0,0h77.3l10.6,25.3c2.1,4.9,2.8,8.5,2.8,11.2s-2.2,6.4-6.3,8.2v6.3h47.7v-6.3c-6.1-2.6-9.4-10.8-14.8-23.3ZM701.8,1165.7h0l29.6-67.2,28.4,67.2h-58Z"/>
  <path class="st0" d="M417.4,932.5c-28.9,0-52.8,21.4-52.8,53.1s23.7,51,52.6,51,39-10.3,51-30.1l-8.9-6.6c-8.9,13.1-20.4,19.3-35.4,19.3s-27-7.7-33.1-22.8h0s77.9-29.2,77.9-29.2c-5.7-21.3-24.9-34.7-51.4-34.7ZM388.1,982h0c-.3-2.6-.3-4.7-.3-5.9,0-16.9,11.8-28.4,28.7-28.4s20.4,5.4,23.3,14.8l-51.8,19.5Z"/>
</svg>