<?xml version="1.0" encoding="UTF-8"?><svg id="b" xmlns="http://www.w3.org/2000/svg" viewBox="0 0 1000 1000"><defs><style>.d{fill:#7ac943;}.e{fill:#00aeef;}.f{fill:#fff;}.g{fill:#d4af37;}.h{fill:#e7d8c9;}.i{fill:#ffd900;}.j{fill:#1d1d1b;}.k{fill:#8b5e3c;}.l{fill:#8c2c2c;}</style></defs><g id="c"><path class="f" d="M271.98,705.15c.18.28.36.55.55.83,48.37,73.11,99.44,139.65,133.77,182.6l.16.2c22.99,28.58,57.09,44.98,93.55,44.98s70.56-16.4,93.57-45l.03-.04.08-.1c34.27-42.88,85.21-109.24,133.5-182.19.36-.53.72-1.07,1.06-1.61,39.96-60.5,71.82-116.08,94.69-165.23,31.13-66.9,46.27-122.63,46.27-170.38,0-49.81-9.77-98.17-29.04-143.74-18.6-43.97-45.21-83.45-79.09-117.33-33.88-33.88-73.36-60.49-117.33-79.09C598.18,9.77,549.82,0,500.01,0s-98.17,9.77-143.74,29.04c-43.97,18.6-83.45,45.21-117.33,79.09-33.88,33.88-60.5,73.36-79.09,117.33-19.27,45.56-29.04,93.92-29.04,143.73,0,47.75,15.13,103.48,46.27,170.37,22.92,49.24,54.85,104.94,94.91,165.57Z"/><path class="f" d="M241.8,505.24c24.07,52.43,57.08,107.97,91.48,159.99v.03h.02c.12.19.25.37.37.55v-213.05c-10.05-2.2-19.44-6.17-27.84-11.57l-64.04,64.04Z"/><path class="f" d="M279.97,415.34c-5.4-8.4-9.37-17.79-11.57-27.85h-63.4c2.63,24.75,10.24,52.3,21.42,81.4l53.56-53.56Z"/><path class="f" d="M370.25,452.77v266.45c35.17,49.75,68.94,93.35,93.19,123.69,5.12,6.36,11.41,10.99,18.24,13.92v-332.03s-83.6-83.6-83.6-83.6c-8.4,5.4-17.79,9.37-27.84,11.57Z"/><path class="f" d="M279.97,323.09l-57.4-57.4c-10,26.79-16.22,55.41-18.04,85.23h63.88c2.2-10.05,6.17-19.43,11.57-27.83Z"/><path class="f" d="M333.67,285.66V124.27c-39.62,26.96-72.35,63.28-95.02,105.77l67.19,67.19c8.4-5.4,17.79-9.37,27.84-11.57Z"/><path class="f" d="M333.67,323.79c-.3.12-.61.24-.91.37h0c-11.61,4.95-20.91,14.26-25.86,25.86h0s0,0,0,0c-.13.29-.24.6-.36.89,0,0,0,0,0,0-2.28,5.65-3.55,11.83-3.55,18.3s1.26,12.63,3.54,18.28c0,0,0,0,0,0,.12.31.24.61.37.92,0,0,0,0,0,0,4.95,11.61,14.26,20.91,25.86,25.86h0s0,0,0,0c.29.13.6.24.89.36,0,0,0,0,.01,0h0c5.65,2.28,11.82,3.54,18.29,3.54s12.64-1.27,18.29-3.54h0s.01,0,.02,0c.3-.12.6-.23.89-.36,0,0,0,0,0,0h0c11.91-5.08,21.39-14.75,26.23-26.78,0,0,0,0,0,0,2.28-5.65,3.54-11.81,3.54-18.28s-1.27-12.64-3.55-18.3c0,0,0,0,0,0-4.85-12.02-14.32-21.68-26.22-26.76,0,0,0,0,0,0-.3-.13-.6-.24-.9-.36,0,0,0,0,0,0-5.65-2.28-11.82-3.54-18.29-3.54s-12.64,1.27-18.29,3.54h0Z"/><path class="f" d="M518.26,350.92h74.51c.23-.2.48-.42.71-.62,9.72-8.53,23.04-20.2,37.64-10.53l3.58,2.37,30.95-13.47c11.29-4.92,24.52-1.56,32.17,8.14l12.06,15.31c7.93,10.07,7.93,24.12,0,34.19l-12.06,15.31c-5.29,6.71-13.25,10.39-21.39,10.39-3.63,0-7.29-.73-10.77-2.24l-30.95-13.47-3.58,2.37c-14.6,9.67-27.92-2.01-37.64-10.53-.23-.21-.49-.43-.73-.64h-74.49v122.16s151.29,151.29,151.29,151.29c66.18-100.68,126.51-213.78,126.51-291.73h0c0-113.2-63.54-211.54-156.88-261.35l-120.92,120.92v122.14Z"/><path class="f" d="M518.26,856.86c6.86-2.93,13.18-7.57,18.31-13.95,28.6-35.78,70.44-90,112.21-151.01l-130.52-130.52v295.48Z"/><path class="f" d="M481.68,213.63v-55.43c-4.64-3.27-8.19-7.79-9.98-13.17l-4.7-14.1c-.89-2.67-1.79-8.44-1.9-10.31-.51-8.77,2.6-17.2,8.76-23.73,6.57-6.96,16.08-10.96,26.1-10.96s19.53,3.99,26.1,10.96c6.16,6.53,9.27,14.96,8.76,23.73-.11,1.87-1.01,7.64-1.9,10.31l-4.7,14.09c-1.79,5.38-5.34,9.9-9.98,13.17v18.86l85.28-85.28c-32.23-12.03-67.11-18.63-103.53-18.63-46.55,0-90.57,10.75-129.76,29.89v182.62c10.05,2.2,19.44,6.17,27.84,11.57l83.6-83.6Z"/><path class="f" d="M435.51,350.92h46.17v-85.56s-57.74,57.74-57.74,57.74c5.4,8.39,9.37,17.78,11.57,27.83Z"/><path class="f" d="M423.95,415.34l57.74,57.74v-85.58s-46.17,0-46.17,0c-2.2,10.06-6.17,19.45-11.57,27.85Z"/><path class="f" d="M806.65,904.02c97.65,11.41,94.25,26.36,94.25,26.36,0,22.61-179.49,40.93-400.89,40.93s-400.89-18.33-400.89-40.93c0,0-3.4-14.95,94.25-26.36C-9.17,917.26.06,945.42.06,945.42c0,30.14,223.83,54.58,499.94,54.58,276.11,0,499.94-24.43,499.94-54.58,0,0,9.23-28.17-193.29-41.4Z"/><path class="j" d="M697.59,684.88c39.04-59.08,70.05-113.15,92.2-160.73,28.84-61.96,42.85-112.64,42.85-154.94,0-44.89-8.8-88.46-26.16-129.49-16.76-39.61-40.73-75.18-71.27-105.72-30.54-30.54-66.11-54.52-105.72-71.27-41.03-17.36-84.6-26.16-129.49-26.16s-88.45,8.8-129.49,26.16c-39.61,16.76-75.18,40.73-105.72,71.27-30.54,30.54-54.52,66.11-71.27,105.72-17.36,41.03-26.16,84.6-26.16,129.49,0,42.3,14.02,92.98,42.85,154.94,22.17,47.64,53.25,101.8,92.36,160.97.13.2.26.39.39.59,47.63,72.01,98.01,137.64,131.9,180.04.02.03.05.06.07.09,16.03,19.92,39.74,31.35,65.07,31.35s49.04-11.43,65.07-31.35c.02-.03.05-.06.07-.09,33.84-42.34,84.12-107.85,131.7-179.74.26-.37.5-.74.75-1.13Z"/><path class="d" d="M241.8,505.24c24.07,52.43,57.08,107.97,91.48,159.99v.03h.02c.12.19.25.37.37.55v-213.05c-10.05-2.2-19.44-6.17-27.84-11.57l-64.04,64.04Z"/><path class="g" d="M268.4,387.5h-63.4c2.63,24.75,10.24,52.3,21.42,81.4l53.56-53.56c-5.4-8.4-9.37-17.79-11.57-27.85Z"/><path class="l" d="M370.25,452.77v266.45c35.17,49.75,68.94,93.35,93.19,123.69,5.12,6.36,11.41,10.99,18.24,13.92v-332.03s-83.6-83.6-83.6-83.6c-8.4,5.4-17.79,9.37-27.84,11.57Z"/><path class="h" d="M279.97,323.09l-57.4-57.4c-10,26.79-16.22,55.41-18.04,85.23h63.88c2.2-10.05,6.17-19.43,11.57-27.83Z"/><path class="k" d="M333.67,285.66V124.27c-39.62,26.96-72.35,63.28-95.02,105.77l67.19,67.19c8.4-5.4,17.79-9.37,27.84-11.57Z"/><path class="i" d="M370.25,414.64s.01,0,.02,0c.3-.12.6-.23.89-.36,0,0,0,0,0,0h0c11.91-5.08,21.39-14.75,26.23-26.78,0,0,0,0,0,0,2.28-5.65,3.54-11.81,3.54-18.28s-1.27-12.64-3.55-18.3c0,0,0,0,0,0-4.85-12.02-14.32-21.68-26.22-26.76,0,0,0,0,0,0-.3-.13-.6-.24-.9-.36,0,0,0,0,0,0-5.65-2.28-11.82-3.54-18.29-3.54s-12.64,1.27-18.29,3.54c0,0,0,0,0,0-.3.12-.61.24-.91.37,0,0,0,0,0,0-11.61,4.95-20.91,14.26-25.86,25.86h0s0,0,0,0c-.13.29-.24.6-.36.89,0,0,0,0,0,0-2.28,5.65-3.55,11.83-3.55,18.3s1.26,12.63,3.54,18.28c0,0,0,0,0,0,.12.31.24.61.37.92,0,0,0,0,0,0,4.95,11.61,14.26,20.91,25.86,25.86h0s0,0,0,0c.3.13.6.24.89.36,0,0,0,0,.01,0h0c5.65,2.28,11.82,3.54,18.29,3.54s12.64-1.27,18.29-3.54h0Z"/><path class="e" d="M639.18,107.86l-120.92,120.92v122.14s74.51,0,74.51,0c.23-.2.48-.42.71-.62,9.72-8.53,23.04-20.2,37.64-10.53l3.58,2.37,30.95-13.47c11.29-4.92,24.52-1.56,32.17,8.14l12.06,15.31c7.93,10.07,7.93,24.12,0,34.19l-12.06,15.31c-5.29,6.71-13.25,10.39-21.39,10.39-3.63,0-7.29-.73-10.77-2.24l-30.95-13.47-3.58,2.37c-14.6,9.67-27.92-2.01-37.64-10.53-.23-.21-.49-.43-.73-.64h-74.49v122.16s151.29,151.29,151.29,151.29c66.18-100.68,126.51-213.78,126.51-291.73h0c0-113.2-63.54-211.54-156.88-261.35Z"/><path class="h" d="M518.26,856.86c6.86-2.93,13.18-7.57,18.31-13.95,28.6-35.78,70.44-90,112.21-151.01l-130.52-130.52v295.48Z"/><path class="g" d="M534.84,120.62c-.11,1.87-1.01,7.64-1.9,10.31l-4.7,14.1c-1.79,5.38-5.34,9.9-9.98,13.17v18.86s85.28-85.28,85.28-85.28c-32.23-12.03-67.11-18.63-103.53-18.63-46.55,0-90.57,10.75-129.76,29.89v182.62c10.05,2.2,19.44,6.17,27.84,11.57l83.6-83.6v-55.43c-4.64-3.27-8.19-7.79-9.98-13.17l-4.7-14.1c-.89-2.67-1.79-8.44-1.9-10.31-.51-8.77,2.6-17.2,8.76-23.73,6.57-6.96,16.08-10.96,26.1-10.96s19.53,3.99,26.1,10.96c6.16,6.53,9.27,14.96,8.76,23.73Z"/><path class="k" d="M435.51,350.92h46.17v-85.56s-57.74,57.74-57.74,57.74c5.4,8.39,9.37,17.78,11.57,27.83Z"/><path class="d" d="M423.95,415.34l57.74,57.74v-85.58s-46.17,0-46.17,0c-2.2,10.06-6.17,19.45-11.57,27.85Z"/></g></svg>