<?xml version="1.0" encoding="UTF-8"?>
<svg id="Calque_2" xmlns="http://www.w3.org/2000/svg" version="1.1" viewBox="0 0 1219.7 1222.5">
  <!-- Generator: Adobe Illustrator 29.6.0, SVG Export Plug-In . SVG Version: 2.1.1 Build 207)  -->
  <defs>
    <style>
      .st0 {
        fill: #e7d8c9;
      }
    </style>
  </defs>
  <polygon class="st0" points="939.5 665.9 939.5 665.9 939.5 665.8 939.5 665.9"/>
  <path class="st0" d="M939.5,665.9v2.3c0,10.7,3.9,18.3,13.3,18.3s14.6-7,14.6-27.4v-17.3h-5c-13.8,0-22.9,5.2-22.9,24.1Z"/>
  <path class="st0" d="M834.8,665.9v2.3c0,10.7,3.9,18.3,13.3,18.3s14.6-7,14.6-27.4v-17.3h-5c-13.8,0-22.9,5.2-22.9,24.1Z"/>
  <polygon class="st0" points="834.8 665.9 834.8 665.9 834.8 665.8 834.8 665.9"/>
  <path class="st0" d="M330.8,665.9v2.3c0,10.7,3.9,18.3,13.3,18.3s14.6-7,14.6-27.4v-17.3h-5c-13.8,0-22.9,5.2-22.9,24.1Z"/>
  <path class="st0" d="M1113.3,440.6h0c-48.2-122.8-96.5-245.6-144.7-368.3L940.5,0h-448.4c-9.8,25-19.6,49.9-29.3,74.9-25.1,59-50.2,118.1-75.4,177.1l-75-177c-9.9-25-19.7-50-29.6-75H0l55.8,152.1,118.3,322.2c-9.7,8.7-18.7,18.2-26.9,28.4-35.7,44-54.6,97.4-54.6,154.3v1.6c0,67.6,22.5,124.7,66.8,169.8,5.4,5.5,11.2,10.8,17.3,16l-53.2,62.7-26.3,31-70,82.4,79.2,73.5c78.9,73.3,163.8,107.4,267.1,107.4s143.4-24.8,194.6-69.8c37.5-32.9,55.5-68.5,61.1-80.2,23.8-49.6,25.3-95,24.4-118.3,16.8,44.3,33.6,88.7,50.4,133.1h90v156.4h267v-436.3h158.7v-345.7h-106.4ZM240.2,713.3h0c-36.3-.1-45.1-23.1-45.1-48.8v-11.6h30.2v12.1c0,14.5,4.4,22.6,15.9,22.6s14.8-11.1,14.8-23.8c0-21-4.5-27.5-25.6-44-21.1-16.6-32.4-27.2-32.4-56.1s7.8-51.7,43.2-51.7,41.8,25.7,41.8,46.9v10.4h-30v-9.6c0-13.6-2.3-21.8-12.3-21.8s-12.4,8.5-12.4,21.5,2.6,20.5,19.9,33.1c29.3,21.6,38.3,34.2,38.3,66.8s-9.7,54-46.3,54ZM361.3,710.3h-.2c-.6-2.8-1.7-9-1.9-11.1-5.2,9.3-13.4,13.4-25.1,13.4-22.8,0-32-21.1-32-43.9v-2.6c0-37.3,25.2-47.2,52.6-47.2h3.5v-19.3c0-11.9-1.4-18.5-10.6-18.5s-11,6.9-11,16.3v2.5h-29.7v-2c0-21.9,8.4-41.3,41.8-41.3s39.6,16.1,39.6,40.6v82.1c0,9.5,0,25.2.6,31h-27.6ZM444.1,710.3h-30.2v-151.3h30.2v151.3ZM444.3,538.7h-30.2v-32.2h30.2v32.2ZM558.5,710.4h-.1c0-.1-30.2-.1-30.2-.1v-108.2c0-13.7-4.7-18.5-13.1-18.5s-15.3,5.7-15.3,26.3v100.4h-30.2v-104.6c0-30.7,0-39.8-.3-46.7h28.9c.5,3.5,1.1,9.4,1.1,13.8,4.4-8.8,12.5-16.1,28-16.1s31.2,11.2,31.2,39.8v113.9ZM635.8,585.4h-19v89.5c0,7.1,1,12.9,10.1,12.9s6.6-.3,8.2-.9v22.7c-5.1,2.5-12.7,3-18.4,3-19,0-30.1-6.1-30.1-32.3v-94.9h-16.1v-26.4h16.1v-36.3h30.2v36.3h19v26.4ZM696.8,646.7h-53v-27.5h53v27.5ZM770.1,710.2h0c0,0-36.9,0-36.9,0l-34.3-195.3h32.6l10.4,79.4c3.4,26.3,7.7,53.9,9.4,76.4h.6c1.7-21.2,6.3-49.1,9.4-75.8l9.8-80.1h32.4l-33.4,195.3ZM865.3,710.3h-.2c-.6-2.8-1.7-9-1.9-11.1-5.2,9.3-13.4,13.4-25.1,13.4-22.8,0-32-21.1-32-43.9v-2.6c0-37.3,25.2-47.2,52.6-47.2h3.5v-19.3c0-11.9-1.4-18.5-10.6-18.5s-11,6.9-11,16.3v2.5h-29.7v-2c0-21.9,8.4-41.3,41.8-41.3s39.6,16.1,39.6,40.6v82.1c0,9.5,0,25.2.6,31h-27.6ZM970,710.3h-.2c-.6-2.8-1.7-9-1.9-11.1-5.2,9.3-13.4,13.4-25.1,13.4-22.8,0-32-21.1-32-43.9v-2.6c0-37.3,25.2-47.2,52.6-47.2h3.5v-19.3c0-11.9-1.4-18.5-10.6-18.5s-11,6.9-11,16.3v2.5h-29.7v-2c0-21.9,8.4-41.3,41.8-41.3s39.6,16.1,39.6,40.6v82.1c0,9.5,0,25.2.6,31h-27.6ZM1056.4,712.8h0c-34.1-.1-42-21.5-42-43.1v-6.7h30.5v6.9c0,9.3,2.6,17.4,12.3,17.4s11.7-5,11.7-15.1-2.8-16.5-21.2-28.3c-20.9-13.4-30.9-24.3-30.9-46s13.8-41.2,40.2-41.2,40.1,15.8,40.1,43.5v6.1h-29.2v-9.3c0-10.5-3.5-14.8-10.7-14.8s-10.4,5.4-10.4,13.4,2.8,12.3,16.7,21.1c26.6,16.8,36,27.6,36,52.3s-14.6,43.8-43.1,43.8ZM1163.4,687.8c9.1,0,6.6-.3,8.2-.9v22.7c-5.1,2.5-12.7,3-18.4,3-19,0-30.1-6.1-30.1-32.3v-94.9h-16.1v-26.4h16.1v-36.3h30.2v36.3h19v26.4h-19v89.5c0,7.1,1,12.9,10.1,12.9Z"/>
</svg>