<?xml version="1.0" encoding="UTF-8"?><svg id="b" xmlns="http://www.w3.org/2000/svg" viewBox="0 0 1000 188.78"><defs><style>.d{fill:#7ac943;}.e{fill:#00aeef;}.f{fill:#fff;}.g{fill:#d4af37;}.h{fill:#e7d8c9;}.i{fill:#ffd900;}.j{fill:#1d1d1b;}.k{fill:#8b5e3c;}.l{fill:#8c2c2c;}</style></defs><g id="c"><path class="f" d="M832.49,109.21h24.2v4.13c0,8.82-2.33,15.69-6.99,20.63-4.66,4.94-10.86,7.41-18.62,7.41s-14.21-2.31-18.99-6.94c-4.78-4.63-7.18-10.79-7.18-18.48v-40.24c0-8.5,2.33-15.35,6.99-20.54,4.66-5.19,10.86-7.78,18.62-7.78,5.19,0,10.08,1.55,14.68,4.64,4.6,3.1,7.67,7.52,9.24,13.27h24.18s.01,0,.01-.01c-1.56-8.12-4.61-15.22-9.14-21.28-4.53-6.06-10.13-10.79-16.79-14.16-6.66-3.38-14.05-5.07-22.18-5.07-9.82,0-18.35,2.11-25.61,6.33-7.25,4.22-12.91,10.15-16.98,17.77-4.07,7.63-6.1,16.57-6.1,26.82v40.24c0,9.63,2.05,18.06,6.14,25.28,4.09,7.22,9.83,12.82,17.21,16.79,7.38,3.97,16.01,5.96,25.89,5.96s18.37-2.11,25.65-6.33c7.29-4.22,12.94-10.16,16.98-17.82,4.03-7.66,6.05-16.62,6.05-26.87v-25.23h-47.27v21.48Z"/><path class="f" d="M937.17,77c-4.5,0-8.17,3.66-8.17,8.17s3.66,8.17,8.17,8.17,8.17-3.66,8.17-8.17-3.66-8.17-8.17-8.17Z"/><path class="f" d="M993.95,48.57c-4.03-7.53-9.72-13.38-17.07-17.54-7.35-4.16-15.93-6.24-25.75-6.24s-18.4,2.08-25.75,6.24c-7.35,4.16-13.04,10.01-17.07,17.54-4.03,7.54-6.05,16.37-6.05,26.5v38.64c0,10.07,2.02,18.89,6.05,26.45,4.03,7.57,9.72,13.43,17.07,17.59,7.35,4.16,15.93,6.24,25.75,6.24s18.4-2.08,25.75-6.24c7.35-4.16,13.04-10.02,17.07-17.59,4.03-7.56,6.05-16.38,6.05-26.45v-38.64c0-10.13-2.02-18.96-6.05-26.5ZM982.22,101.46c-2.19,4.7-5.24,10.02-9.06,15.82-.03.05-.07.1-.1.15-4.62,6.98-9.5,13.33-12.78,17.44h0s0,.01,0,.01c-2.2,2.74-5.47,4.31-8.96,4.31s-6.75-1.57-8.95-4.31l-.02-.02c-3.29-4.11-8.17-10.48-12.8-17.48-.02-.03-.04-.05-.05-.08-3.83-5.8-6.89-11.13-9.08-15.85-2.98-6.4-4.43-11.74-4.43-16.31s.94-9.4,2.78-13.76c1.78-4.21,4.33-7.99,7.57-11.23,3.24-3.24,7.02-5.79,11.23-7.57,4.36-1.84,8.99-2.78,13.76-2.78s9.4.94,13.76,2.78c4.21,1.78,7.99,4.33,11.23,7.57s5.79,7.02,7.57,11.23c1.84,4.36,2.78,8.99,2.78,13.76s-1.45,9.9-4.43,16.31Z"/><path class="f" d="M51.21,26.2L0,162.58h24.1l8.99-25.89h52.56l8.99,25.89h24.1L67.53,26.2h-16.32ZM40.55,115.21l18.82-54.21,18.82,54.21h-37.64Z"/><path class="f" d="M214.69,101.29c5.75-3.34,10.25-8.02,13.51-14.02,3.25-6,4.88-13.04,4.88-21.1s-1.61-15.1-4.83-21.1c-3.22-6-7.72-10.66-13.51-13.97-5.78-3.31-12.55-4.97-20.31-4.97h-56.93v136.47h22.42v-56.28h22.03l29.93,56.28h26.92l-32.03-57.94s0,0,0,0c2.82-.82,5.47-1.92,7.92-3.35ZM193.78,84.83h-33.86v-37.24h33.86c4.81,0,8.68,1.7,11.58,5.11,2.91,3.41,4.36,7.89,4.36,13.46-.06,5.63-1.53,10.15-4.41,13.55-2.88,3.41-6.72,5.11-11.54,5.11Z"/><path class="f" d="M339.91,101.29c5.75-3.34,10.25-8.02,13.51-14.02,3.25-6,4.88-13.04,4.88-21.1s-1.61-15.1-4.83-21.1c-3.22-6-7.72-10.66-13.51-13.97-5.78-3.31-12.55-4.97-20.31-4.97h-56.93v136.47h22.42v-56.28h22.03l29.93,56.28h26.92l-32.03-57.94s0,0,0,0c2.82-.82,5.47-1.92,7.92-3.35ZM318.99,84.83h-33.86v-37.24h33.86c4.81,0,8.68,1.7,11.58,5.11,2.91,3.41,4.36,7.89,4.36,13.46-.06,5.63-1.53,10.15-4.41,13.55-2.88,3.41-6.72,5.11-11.54,5.11Z"/><path class="f" d="M421.32,26.2l-51.21,136.37h24.1l8.99-25.89h52.56l8.99,25.89h24.11l-51.21-136.37h-16.32ZM410.66,115.21l18.82-54.21,18.82,54.21h-37.64Z"/><path class="f" d="M579.17,93.83c-4.19-2.69-8.83-4.75-13.93-6.19-5.1-1.44-10.21-2.66-15.34-3.66-5.19-1.06-10.02-2.19-14.49-3.38-4.47-1.19-8.1-3.02-10.88-5.49-2.78-2.47-4.17-6.08-4.17-10.83v-.09c0-5.75,2.36-10.21,7.08-13.37,4.72-3.16,11.4-4.74,20.02-4.74,5.19,0,10.51.95,15.94,2.86,5.44,1.91,10.79,4.77,16.04,8.58l10.88-18.48c-6.63-4.69-13.6-8.24-20.92-10.65-7.32-2.41-14.63-3.61-21.95-3.61-15.69,0-27.84,3.56-36.44,10.69-8.6,7.13-12.9,17.2-12.9,30.2v.09c0,8.07,1.36,14.52,4.08,19.37,2.72,4.85,6.31,8.57,10.79,11.16,4.47,2.6,9.38,4.5,14.73,5.72,5.35,1.22,10.61,2.24,15.8,3.05,4.88.81,9.38,1.8,13.51,2.95,4.13,1.16,7.46,2.95,9.99,5.39,2.53,2.44,3.8,5.94,3.8,10.51v.09c0,5.94-2.52,10.54-7.55,13.79-5.03,3.25-12.12,4.88-21.24,4.88-7.32,0-14.24-1.14-20.77-3.42-6.54-2.28-12.43-5.64-17.68-10.08l-11.91,17.91c4.44,3.69,9.28,6.79,14.54,9.29,5.25,2.5,10.89,4.39,16.93,5.67,6.03,1.28,12.33,1.92,18.9,1.92,16.19,0,28.75-3.52,37.66-10.55,8.91-7.03,13.37-16.99,13.37-29.87v-.19c0-7.57-1.27-13.71-3.8-18.43-2.53-4.72-5.89-8.42-10.08-11.11Z"/><path class="f" d="M745.33,170.66c18.43,2.15,17.79,4.98,17.79,4.98,0,4.27-33.88,7.73-75.68,7.73s-75.68-3.46-75.68-7.73c0,0-.64-2.82,17.79-4.98-38.23,2.5-36.49,7.82-36.49,7.82,0,5.69,42.26,10.3,94.38,10.3,52.12,0,94.38-4.61,94.38-10.3,0,0,1.74-5.32-36.49-7.82Z"/><path class="f" d="M751.66,42.57c-3.51-8.3-8.53-15.75-14.93-22.15-6.4-6.4-13.85-11.42-22.15-14.93-8.6-3.64-17.73-5.48-27.13-5.48s-18.53,1.84-27.13,5.48c-8.3,3.51-15.75,8.53-22.15,14.93-6.4,6.4-11.42,13.85-14.93,22.15-3.64,8.6-5.48,17.73-5.48,27.13,0,9.01,2.86,19.53,8.73,32.16,4.33,9.3,10.35,19.81,17.92,31.26.03.05.07.1.1.16,9.13,13.8,18.77,26.36,25.25,34.47l.03.04c4.34,5.4,10.78,8.49,17.66,8.49s13.32-3.1,17.66-8.5h0s.02-.03.02-.03c6.47-8.1,16.09-20.62,25.2-34.39.07-.1.13-.2.2-.3,7.54-11.42,13.56-21.91,17.88-31.19,5.88-12.63,8.73-23.15,8.73-32.16,0-9.4-1.84-18.53-5.48-27.13Z"/><path class="j" d="M724.75,129.29c7.37-11.15,13.23-21.36,17.41-30.34,5.44-11.7,8.09-21.27,8.09-29.25,0-8.47-1.66-16.7-4.94-24.45-3.16-7.48-7.69-14.19-13.45-19.96-5.76-5.76-12.48-10.29-19.96-13.45-7.75-3.28-15.97-4.94-24.45-4.94s-16.7,1.66-24.44,4.94c-7.48,3.16-14.19,7.69-19.96,13.45-5.76,5.76-10.29,12.48-13.45,19.96-3.28,7.75-4.94,15.97-4.94,24.44,0,7.99,2.65,17.55,8.09,29.25,4.19,8.99,10.05,19.22,17.44,30.39.02.04.05.07.07.11,8.99,13.59,18.5,25.98,24.9,33.99,0,0,0,.01.01.02,3.03,3.76,7.5,5.92,12.28,5.92s9.26-2.16,12.28-5.92c0,0,0-.01.01-.02,6.39-7.99,15.88-20.36,24.86-33.93.05-.07.09-.14.14-.21Z"/><path class="d" d="M638.7,95.38c4.54,9.9,10.78,20.38,17.27,30.2h0s0,0,0,0c.02.04.05.07.07.1v-40.22c-1.9-.42-3.67-1.16-5.26-2.18l-12.09,12.09Z"/><path class="g" d="M643.72,73.15h-11.97c.5,4.67,1.93,9.87,4.04,15.37l10.11-10.11c-1.02-1.59-1.77-3.36-2.18-5.26Z"/><path class="l" d="M662.95,85.48v50.3c6.64,9.39,13.02,17.62,17.59,23.35.97,1.2,2.15,2.07,3.44,2.63v-62.68s-15.78-15.78-15.78-15.78c-1.58,1.02-3.36,1.77-5.26,2.18Z"/><path class="h" d="M645.91,60.99l-10.84-10.84c-1.89,5.06-3.06,10.46-3.41,16.09h12.06c.42-1.9,1.16-3.67,2.18-5.25Z"/><path class="k" d="M656.04,53.93v-30.47c-7.48,5.09-13.66,11.95-17.94,19.97l12.68,12.68c1.58-1.02,3.36-1.77,5.26-2.18Z"/><path class="i" d="M662.95,78.28s0,0,0,0c.06-.02.11-.04.17-.07,0,0,0,0,0,0h0c2.25-.96,4.04-2.78,4.95-5.06,0,0,0,0,0,0,.43-1.07.67-2.23.67-3.45s-.24-2.39-.67-3.45c0,0,0,0,0,0-.92-2.27-2.7-4.09-4.95-5.05,0,0,0,0,0,0-.06-.02-.11-.05-.17-.07,0,0,0,0,0,0-1.07-.43-2.23-.67-3.45-.67s-2.39.24-3.45.67c0,0,0,0,0,0-.06.02-.11.04-.17.07,0,0,0,0,0,0-2.19.93-3.95,2.69-4.88,4.88h0s0,0,0,0c-.02.06-.05.11-.07.17,0,0,0,0,0,0-.43,1.07-.67,2.23-.67,3.45s.24,2.38.67,3.45c0,0,0,0,0,0,.02.06.05.12.07.17,0,0,0,0,0,0,.93,2.19,2.69,3.95,4.88,4.88h0s0,0,0,0c.06.02.11.05.17.07,0,0,0,0,0,0h0c1.07.43,2.23.67,3.45.67s2.39-.24,3.45-.67h0Z"/><path class="e" d="M713.72,20.36l-22.83,22.83v23.06s14.07,0,14.07,0c.04-.04.09-.08.13-.12,1.84-1.61,4.35-3.81,7.11-1.99l.68.45,5.84-2.54c2.13-.93,4.63-.3,6.07,1.54l2.28,2.89c1.5,1.9,1.5,4.55,0,6.45l-2.28,2.89c-1,1.27-2.5,1.96-4.04,1.96-.69,0-1.38-.14-2.03-.42l-5.84-2.54-.68.45c-2.76,1.83-5.27-.38-7.11-1.99-.04-.04-.09-.08-.14-.12h-14.06v23.06s28.56,28.56,28.56,28.56c12.49-19.01,23.88-40.36,23.88-55.07h0c0-21.37-11.99-39.93-29.62-49.34Z"/><path class="h" d="M690.89,161.76c1.29-.55,2.49-1.43,3.46-2.63,5.4-6.76,13.3-16.99,21.18-28.51l-24.64-24.64v55.78Z"/><path class="g" d="M694.02,22.77c-.02.35-.19,1.44-.36,1.95l-.89,2.66c-.34,1.02-1.01,1.87-1.88,2.49v3.56s16.1-16.1,16.1-16.1c-6.08-2.27-12.67-3.52-19.55-3.52-8.79,0-17.1,2.03-24.5,5.64v34.48c1.9.42,3.67,1.16,5.26,2.18l15.78-15.78v-10.46c-.88-.62-1.55-1.47-1.88-2.49l-.89-2.66c-.17-.5-.34-1.59-.36-1.95-.1-1.66.49-3.25,1.65-4.48,1.24-1.31,3.04-2.07,4.93-2.07s3.69.75,4.93,2.07c1.16,1.23,1.75,2.82,1.65,4.48Z"/><path class="k" d="M675.27,66.25h8.72v-16.15s-10.9,10.9-10.9,10.9c1.02,1.58,1.77,3.36,2.18,5.25Z"/><path class="d" d="M673.09,78.41l10.9,10.9v-16.16s-8.72,0-8.72,0c-.41,1.9-1.16,3.67-2.18,5.26Z"/></g></svg>