<?xml version="1.0" encoding="UTF-8"?>
<svg id="Calque_1" xmlns="http://www.w3.org/2000/svg" version="1.1" viewBox="0 0 448 448">
  <!-- Generator: Adobe Illustrator 29.6.0, SVG Export Plug-In . SVG Version: 2.1.1 Build 207)  -->
  <defs>
    <style>
      .st0 {
        fill: #e7d8c9;
      }
    </style>
  </defs>
  <path class="st0" d="M64,0C28.7,0,0,28.7,0,64v320c0,35.3,28.7,64,64,64h320c35.3,0,64-28.7,64-64V64c0-35.3-28.7-64-64-64H64ZM361.1,84l-103.8,118.6,122.1,161.4h-95.6l-74.8-97.9-85.7,97.9h-47.5l111-126.9L69.7,84h98l67.7,89.5,78.2-89.5h47.5ZM323.3,335.6L153.4,110.9h-28.3l171.8,224.7h26.4Z"/>
</svg>